<mxfile host="app.diagrams.net" modified="2022-05-04T08:08:33.057Z" agent="5.0 (Macintosh; Intel Mac OS X 10_15_7) AppleWebKit/537.36 (KHTML, like Gecko) Chrome/100.0.4896.127 Safari/537.36" etag="8p8xBX-1nOvETI6bmyyA" version="17.5.0" type="github">
  <diagram id="_lPfwm14zyHaRPgaM4S-" name="Page-1">
    <mxGraphModel dx="2148" dy="728" grid="1" gridSize="10" guides="1" tooltips="1" connect="1" arrows="1" fold="1" page="1" pageScale="1" pageWidth="850" pageHeight="1100" math="0" shadow="0">
      <root>
        <mxCell id="0" />
        <mxCell id="1" parent="0" />
        <mxCell id="Dz1SHcOQrJCo73zto79k-37" value="" style="rounded=0;whiteSpace=wrap;html=1;fontSize=14;fillOpacity=30;fillColor=#ffcccc;strokeColor=#36393d;strokeWidth=0;" parent="1" vertex="1">
          <mxGeometry x="-310" y="20" width="920" height="430" as="geometry" />
        </mxCell>
        <mxCell id="Dz1SHcOQrJCo73zto79k-14" style="edgeStyle=none;rounded=0;orthogonalLoop=1;jettySize=auto;html=1;exitX=1;exitY=0.5;exitDx=0;exitDy=0;startArrow=none;startFill=0;endArrow=classic;endFill=1;fontSize=14;" parent="1" source="Dz1SHcOQrJCo73zto79k-1" target="Dz1SHcOQrJCo73zto79k-11" edge="1">
          <mxGeometry relative="1" as="geometry" />
        </mxCell>
        <mxCell id="Dz1SHcOQrJCo73zto79k-25" value="Save all exchange records to database" style="edgeLabel;html=1;align=center;verticalAlign=bottom;resizable=0;points=[];fontSize=14;" parent="Dz1SHcOQrJCo73zto79k-14" vertex="1" connectable="0">
          <mxGeometry x="-0.549" y="1" relative="1" as="geometry">
            <mxPoint x="69" y="1" as="offset" />
          </mxGeometry>
        </mxCell>
        <mxCell id="Dz1SHcOQrJCo73zto79k-15" style="edgeStyle=none;rounded=0;orthogonalLoop=1;jettySize=auto;html=1;exitX=0;exitY=0.5;exitDx=0;exitDy=0;startArrow=none;startFill=0;endArrow=classic;endFill=1;fontSize=14;" parent="1" source="Dz1SHcOQrJCo73zto79k-1" target="Dz1SHcOQrJCo73zto79k-10" edge="1">
          <mxGeometry relative="1" as="geometry" />
        </mxCell>
        <mxCell id="Dz1SHcOQrJCo73zto79k-28" value="Save latest data to cache" style="edgeLabel;html=1;align=center;verticalAlign=bottom;resizable=0;points=[];fontSize=14;" parent="Dz1SHcOQrJCo73zto79k-15" vertex="1" connectable="0">
          <mxGeometry x="0.54" y="-4" relative="1" as="geometry">
            <mxPoint x="65" y="4" as="offset" />
          </mxGeometry>
        </mxCell>
        <mxCell id="Dz1SHcOQrJCo73zto79k-1" value="&lt;font style=&quot;font-size: 14px;&quot;&gt;Fetcher service&lt;/font&gt;" style="rounded=0;whiteSpace=wrap;html=1;fillColor=#cce5ff;strokeColor=#36393d;fontSize=14;" parent="1" vertex="1">
          <mxGeometry x="130" y="329" width="120" height="60" as="geometry" />
        </mxCell>
        <mxCell id="Dz1SHcOQrJCo73zto79k-30" style="edgeStyle=none;rounded=0;orthogonalLoop=1;jettySize=auto;html=1;fontSize=14;startArrow=none;startFill=0;endArrow=classic;endFill=1;exitX=0.431;exitY=0.008;exitDx=0;exitDy=0;exitPerimeter=0;" parent="1" source="Dz1SHcOQrJCo73zto79k-2" edge="1">
          <mxGeometry relative="1" as="geometry">
            <mxPoint x="-170" y="559" as="sourcePoint" />
            <mxPoint x="-165.28673684210526" y="405.20000000000005" as="targetPoint" />
          </mxGeometry>
        </mxCell>
        <mxCell id="Dz1SHcOQrJCo73zto79k-35" value="Get data from cache" style="edgeLabel;html=1;align=left;verticalAlign=top;resizable=0;points=[];fontSize=14;" parent="Dz1SHcOQrJCo73zto79k-30" vertex="1" connectable="0">
          <mxGeometry x="0.1611" relative="1" as="geometry">
            <mxPoint as="offset" />
          </mxGeometry>
        </mxCell>
        <mxCell id="Dz1SHcOQrJCo73zto79k-2" value="API service" style="rounded=0;whiteSpace=wrap;html=1;fillColor=#cce5ff;strokeColor=#36393d;fontSize=14;" parent="1" vertex="1">
          <mxGeometry x="-236" y="560" width="160" height="60" as="geometry" />
        </mxCell>
        <mxCell id="Dz1SHcOQrJCo73zto79k-7" style="rounded=0;orthogonalLoop=1;jettySize=auto;html=1;startArrow=classic;startFill=1;endArrow=none;endFill=0;entryX=0.005;entryY=0.207;entryDx=0;entryDy=0;entryPerimeter=0;fontSize=14;" parent="1" source="Dz1SHcOQrJCo73zto79k-3" target="Dz1SHcOQrJCo73zto79k-27" edge="1">
          <mxGeometry relative="1" as="geometry">
            <mxPoint x="840" y="60" as="targetPoint" />
          </mxGeometry>
        </mxCell>
        <mxCell id="Dz1SHcOQrJCo73zto79k-22" value="&lt;div style=&quot;font-size: 14px;&quot;&gt;Index swaps via Kyberswap&#39;s pools&lt;/div&gt;" style="edgeLabel;html=1;align=left;verticalAlign=bottom;resizable=0;points=[];fontSize=14;" parent="Dz1SHcOQrJCo73zto79k-7" vertex="1" connectable="0">
          <mxGeometry x="-0.3872" y="3" relative="1" as="geometry">
            <mxPoint x="-70" as="offset" />
          </mxGeometry>
        </mxCell>
        <mxCell id="Dz1SHcOQrJCo73zto79k-12" style="edgeStyle=orthogonalEdgeStyle;rounded=0;orthogonalLoop=1;jettySize=auto;html=1;startArrow=none;startFill=0;endArrow=classic;endFill=1;fontSize=14;" parent="1" source="Dz1SHcOQrJCo73zto79k-3" edge="1">
          <mxGeometry relative="1" as="geometry">
            <mxPoint x="160" y="329" as="targetPoint" />
            <Array as="points">
              <mxPoint x="160" y="60" />
              <mxPoint x="160" y="329" />
            </Array>
          </mxGeometry>
        </mxCell>
        <mxCell id="Dz1SHcOQrJCo73zto79k-40" value="Get all pool exchanges (max 6000 records), type = &quot;pool&quot;" style="edgeLabel;html=1;align=center;verticalAlign=bottom;resizable=0;points=[];fontSize=14;" parent="Dz1SHcOQrJCo73zto79k-12" vertex="1" connectable="0">
          <mxGeometry x="0.0092" y="-2" relative="1" as="geometry">
            <mxPoint x="113" as="offset" />
          </mxGeometry>
        </mxCell>
        <mxCell id="Dz1SHcOQrJCo73zto79k-3" value="Exchange subgraph" style="ellipse;whiteSpace=wrap;html=1;fillColor=#d5e8d4;strokeColor=#82b366;fontSize=14;" parent="1" vertex="1">
          <mxGeometry x="650" y="20" width="120" height="80" as="geometry" />
        </mxCell>
        <mxCell id="Dz1SHcOQrJCo73zto79k-8" style="rounded=0;orthogonalLoop=1;jettySize=auto;html=1;startArrow=classic;startFill=1;endArrow=none;endFill=0;exitX=1;exitY=0.5;exitDx=0;exitDy=0;entryX=0;entryY=0.933;entryDx=0;entryDy=0;entryPerimeter=0;fontSize=14;" parent="1" source="Dz1SHcOQrJCo73zto79k-4" target="Dz1SHcOQrJCo73zto79k-27" edge="1">
          <mxGeometry relative="1" as="geometry">
            <mxPoint x="490" y="160" as="sourcePoint" />
            <mxPoint x="840" y="159" as="targetPoint" />
          </mxGeometry>
        </mxCell>
        <mxCell id="Dz1SHcOQrJCo73zto79k-23" value="Index swaps via aggregator" style="edgeLabel;html=1;align=center;verticalAlign=bottom;resizable=0;points=[];fontSize=14;" parent="Dz1SHcOQrJCo73zto79k-8" vertex="1" connectable="0">
          <mxGeometry x="-0.582" y="2" relative="1" as="geometry">
            <mxPoint x="70" as="offset" />
          </mxGeometry>
        </mxCell>
        <mxCell id="Dz1SHcOQrJCo73zto79k-13" style="edgeStyle=orthogonalEdgeStyle;rounded=0;orthogonalLoop=1;jettySize=auto;html=1;exitX=0;exitY=0.5;exitDx=0;exitDy=0;startArrow=none;startFill=0;endArrow=classic;endFill=1;entryX=0.75;entryY=0;entryDx=0;entryDy=0;fontSize=14;" parent="1" source="Dz1SHcOQrJCo73zto79k-4" target="Dz1SHcOQrJCo73zto79k-1" edge="1">
          <mxGeometry relative="1" as="geometry">
            <mxPoint x="160" y="260" as="targetPoint" />
          </mxGeometry>
        </mxCell>
        <mxCell id="Dz1SHcOQrJCo73zto79k-41" value="Get all router exchanges (max 6000 records), type = &quot; router&quot;" style="edgeLabel;html=1;align=center;verticalAlign=middle;resizable=0;points=[];fontSize=14;" parent="Dz1SHcOQrJCo73zto79k-13" vertex="1" connectable="0">
          <mxGeometry x="0.1553" y="4" relative="1" as="geometry">
            <mxPoint x="96" y="-18" as="offset" />
          </mxGeometry>
        </mxCell>
        <mxCell id="Dz1SHcOQrJCo73zto79k-4" value="Aggregator subgraph" style="ellipse;whiteSpace=wrap;html=1;fillColor=#d5e8d4;strokeColor=#82b366;fontSize=14;" parent="1" vertex="1">
          <mxGeometry x="660" y="130" width="120" height="80" as="geometry" />
        </mxCell>
        <mxCell id="Dz1SHcOQrJCo73zto79k-19" style="edgeStyle=none;rounded=0;orthogonalLoop=1;jettySize=auto;html=1;startArrow=none;startFill=0;endArrow=classic;endFill=1;entryX=0.25;entryY=0;entryDx=0;entryDy=0;exitX=0.227;exitY=1.014;exitDx=0;exitDy=0;exitPerimeter=0;fontSize=14;" parent="1" source="Dz1SHcOQrJCo73zto79k-10" target="Dz1SHcOQrJCo73zto79k-2" edge="1">
          <mxGeometry relative="1" as="geometry">
            <mxPoint x="550" y="526" as="targetPoint" />
          </mxGeometry>
        </mxCell>
        <mxCell id="Dz1SHcOQrJCo73zto79k-36" value="Return data" style="edgeLabel;html=1;align=right;verticalAlign=middle;resizable=0;points=[];fontSize=14;" parent="Dz1SHcOQrJCo73zto79k-19" vertex="1" connectable="0">
          <mxGeometry x="-0.0875" y="-5" relative="1" as="geometry">
            <mxPoint as="offset" />
          </mxGeometry>
        </mxCell>
        <mxCell id="Dz1SHcOQrJCo73zto79k-10" value="" style="sketch=0;aspect=fixed;html=1;points=[];align=center;image;fontSize=14;image=img/lib/mscae/Cache_Redis_Product.svg;" parent="1" vertex="1">
          <mxGeometry x="-220" y="312.8" width="110" height="92.4" as="geometry" />
        </mxCell>
        <mxCell id="Dz1SHcOQrJCo73zto79k-21" style="edgeStyle=orthogonalEdgeStyle;rounded=0;orthogonalLoop=1;jettySize=auto;html=1;entryX=0.75;entryY=1;entryDx=0;entryDy=0;startArrow=none;startFill=0;endArrow=classic;endFill=1;fontSize=14;" parent="1" source="Dz1SHcOQrJCo73zto79k-11" target="Dz1SHcOQrJCo73zto79k-1" edge="1">
          <mxGeometry relative="1" as="geometry">
            <Array as="points">
              <mxPoint x="559" y="420" />
              <mxPoint x="220" y="420" />
            </Array>
          </mxGeometry>
        </mxCell>
        <mxCell id="Dz1SHcOQrJCo73zto79k-26" value="Aggregate latest total/24h trading volume" style="edgeLabel;html=1;align=center;verticalAlign=bottom;resizable=0;points=[];fontSize=14;" parent="Dz1SHcOQrJCo73zto79k-21" vertex="1" connectable="0">
          <mxGeometry x="0.171" relative="1" as="geometry">
            <mxPoint x="29" as="offset" />
          </mxGeometry>
        </mxCell>
        <mxCell id="Dz1SHcOQrJCo73zto79k-11" value="" style="sketch=0;outlineConnect=0;fontColor=#232F3E;gradientColor=none;fillColor=#2E27AD;strokeColor=none;dashed=0;verticalLabelPosition=bottom;verticalAlign=top;align=center;html=1;fontSize=14;fontStyle=0;aspect=fixed;pointerEvents=1;shape=mxgraph.aws4.rds_mysql_instance;" parent="1" vertex="1">
          <mxGeometry x="520" y="320" width="78" height="78" as="geometry" />
        </mxCell>
        <mxCell id="Dz1SHcOQrJCo73zto79k-18" style="edgeStyle=none;rounded=0;orthogonalLoop=1;jettySize=auto;html=1;entryX=1;entryY=0.25;entryDx=0;entryDy=0;startArrow=classic;startFill=1;endArrow=none;endFill=0;exitX=0.017;exitY=0.319;exitDx=0;exitDy=0;exitPerimeter=0;fontSize=14;" parent="1" source="Dz1SHcOQrJCo73zto79k-17" target="Dz1SHcOQrJCo73zto79k-2" edge="1">
          <mxGeometry relative="1" as="geometry" />
        </mxCell>
        <mxCell id="Dz1SHcOQrJCo73zto79k-34" value="Response with volume data" style="edgeLabel;html=1;align=center;verticalAlign=bottom;resizable=0;points=[];fontSize=14;" parent="Dz1SHcOQrJCo73zto79k-18" vertex="1" connectable="0">
          <mxGeometry x="-0.2421" y="-4" relative="1" as="geometry">
            <mxPoint x="-27" as="offset" />
          </mxGeometry>
        </mxCell>
        <mxCell id="Dz1SHcOQrJCo73zto79k-29" style="edgeStyle=none;rounded=0;orthogonalLoop=1;jettySize=auto;html=1;entryX=1;entryY=0.5;entryDx=0;entryDy=0;fontSize=14;startArrow=none;startFill=0;endArrow=classic;endFill=1;" parent="1" source="Dz1SHcOQrJCo73zto79k-17" target="Dz1SHcOQrJCo73zto79k-2" edge="1">
          <mxGeometry relative="1" as="geometry" />
        </mxCell>
        <mxCell id="Dz1SHcOQrJCo73zto79k-33" value="Get volume (total/24h)" style="edgeLabel;html=1;align=center;verticalAlign=top;resizable=0;points=[];fontSize=14;" parent="Dz1SHcOQrJCo73zto79k-29" vertex="1" connectable="0">
          <mxGeometry x="0.4796" relative="1" as="geometry">
            <mxPoint x="45" as="offset" />
          </mxGeometry>
        </mxCell>
        <mxCell id="Dz1SHcOQrJCo73zto79k-17" value="Client" style="ellipse;whiteSpace=wrap;html=1;fontSize=14;fillColor=#fff2cc;strokeColor=#d6b656;" parent="1" vertex="1">
          <mxGeometry x="150" y="550" width="120" height="80" as="geometry" />
        </mxCell>
        <mxCell id="Dz1SHcOQrJCo73zto79k-27" value="&lt;span style=&quot;font-size: 14px;&quot;&gt;RPC Node&lt;br style=&quot;font-size: 14px;&quot;&gt;(Ethereum, BSC, Polygon, ...)&lt;/span&gt;" style="rounded=1;whiteSpace=wrap;html=1;fontSize=14;fillColor=#fff2cc;strokeColor=#d6b656;" parent="1" vertex="1">
          <mxGeometry x="1070" y="30" width="220" height="150" as="geometry" />
        </mxCell>
        <mxCell id="Dz1SHcOQrJCo73zto79k-42" value="Run each 1 minute" style="shape=image;verticalLabelPosition=bottom;labelBackgroundColor=default;verticalAlign=top;aspect=fixed;imageAspect=0;image=data:image/png,iVBORw0KGgoAAAANSUhEUgAABLAAAASwCAYAAADrIbPPAAAABGdBTUEAALGPC/xhBQAAACBjSFJNAAB6JgAAgIQAAPoAAACA6AAAdTAAAOpgAAA6mAAAF3CculE8AAAABmJLR0QA/wD/AP+gvaeTAAAAB3RJTUUH4QsbCB4jmTGcHQAAgABJREFUeNrs/Xl4nAW9//+/3jNZmtKURVoERRQX3Le4UNtm7knSlgIFBaIoCoo7uIAr/tyPx3PABTwgckRxARE1gkKB2CWZe9Jij2jdd9xBEVqW0tIlmbnf3z9aPz8Q2k6SmbmXeT6u61wez1Ggz1ky9yv3fY8EAACASQkC/0gQ+LmUAAAAaA4jAQAAQO0KBX+rmS7c9W8/G4Z6m2ROGQAAgMZhwAIAAKhREPhpkr78b5+hPh+GOkOyiEIAAACNwYAFAABQg2LRT3DXNyW1/fv/z11fN9NpYWgVSgEAANQfAxYAAMBe9PX54ijSdZI69/AfW97VpcHhYdtBMQAAgPpiwAIAANiDvj5/URRppaR9aviPD+/YoRPXrbNtlAMAAKgfBiwAAIDdCAJ/tqSSpP1q/e+4a2zmTC0bHrb7KAgAAFAfDFgAAAAPIwj86ZJCSY+Ywn/9R/m8jhoZsbsoCQAAMH05EgAAADxYX58/3l0rNLXxSpKeV62qvHChH0xNAACA6eMMLAAAgAfo6/NHRZHWSHpcHf5yv5M0EIZ2G2UBAACmjgELAABglyDwA91VNtNT6/iX/at2jlh/oDAAAMDUcAkhAACApKVLfbak79V5vJKkwySt2XVPLQAAAEwBAxYAAGh5y5b5zK1btVxST4P+Fo9018iubzUEAADAJDFgAQCAljY46B2bN+vbZupt5N/HTHMllQoFn0d1AACAyWHAAgAALWtw0PMbN+prkpY26W+5n5lWBYEPUB8AAKB2DFgAAKBFuW3YoM+7a7DJf+N9JF1fLPrxPAYAAAC1YcACAAAtqVDQpyS9Nqa/fWcU6VtB4CfxSAAAAOwdAxYAAGg5hYJ/3EzviPOfwUwdkr5RKPhreEQAAAD28tmJBAAAoJUEgZ8l6YIE/SO5mc4qlexCHh0AAICHx4AFAABaRqHgrzHTZQn8DOSS3hOG9ikeJQAAgIdiwAIAAC0hCPwUd11uluhbKJwXhnYOjxYAAMCDMWABAIDMKxb9OHd9W1J7Cv5xPxuGeptkziMHAACwEwMWAADItL4+74si3SBpRlr+md11abmsN0sW8QgCAAAwYAEAgAwrFv2F7lotaVbqPqSZrnLXqWFoFR5JAADQ6hiwAABAJvX2+jPMFJrpgBT/MZZLemkY2nYeUQAA0MpyJAAAAFkTBP6EXE4rUz5eSdIySd+ZN8+7eFQBAEAr4wwsAACQKUHgj5a0RtJjM/THWtPVpWOHh+0+HmEAANCKGLAAAEBmLFzoc/J5jUl6cgb/eOvzeS0ZGbG7eKQBAECr4RJCAACQCQMDvm8+rxXK5nglST2VisYWLfJDeLQBAECrYcACAACpt2yZz6xUdL2k52T5z2mmp05MaHTXZZIAAAAtgwELAACk2uCgd2zerGskLWiRP/IRktYGgT+BRx8AALQKBiwAAJBag4Oe37BBX5e0pMX+6IdJWhME/nSeBQAAoBUwYAEAgJTy3J136nJJJ7ZogEe6q1wo+PN5LgAAgKxjwAIAACnkFgS62EyvaOUKZjrATCv7+vxFPCcAAECWMWABAIDUCQL9t6Q3UUKStF8UaWUQ+AApAABAVjFgAQCAVAkC/4Ck91LiQfaRdH0Q+ItJAQAAsshIAAAA0iII/ExJn6XEw3PXuKRXlss2RA0AAJAlDFgAACAVCgV/laSvmHEG+V5U3fX6ctm+TAoAAJAVDFgAACDxdl0aNySpjRo1cUlnh6H9DykAAEAW8BtMAACQaLtuTv4NMV5Nhkn6TKHgHyQFAADIyocbAACARCoUfJ6ZVkqaRY0pOy8M7RwyAACANGPAAgAAiVQs+rPcVZK0PzWm7eIw1Fslc1IAAIA0YsACAACJ09vrT8zltEbSQdSo04c+0xdKJb1JsogaAAAgdZ9lSAAAAJJkYMAfU6loTNJh1Ki7b2zerFPXr7cJUgAAgDRhwAIAAImxeLHPHR/XmKQjqNEw10saDEPbTgoAAJAWDFgAACAR+vv9EdWqypKeRo2GK0k6LgxtCykAAEAa5EgAAADitnSpz65WNSzGq2YpSrpx6VKfTQoAAJAGnIEFAABiNW+ed3V26kZJATWabr2ko8LQNpICAAAkGWdgAQCA2PT0eHtnp4bEeBXbQ+Cu8qJFfggpAABAkjFgAQCAWAwOer67W5dLOoYa8THTUycmNNrb64dSAwAAJBUDFgAAiIHbxo26RNLJtEiEI3I5rQkCfwIpAABAEjFgAQCApgsCfcJdr6dEohwmaU1vrz+DFAAAIGkYsAAAQFMFgX9E0rsokUiPNFPY1+cvIAUAAEgSvoUQAAA0TaHgbzXThZRIvE25nI4eHbXvkwIAACQBAxYAAGiKIPDTJH2Zzx+pcb+7XlIu2ypSAACAuPEBEgAANFyx6Ce465uS2qiRKjsknRyG9l1SAACAODFgAQCAhurr88VRpOskdVIjlSbcdUq5bEOkAAAAceEm7gAAoGH6+vxFUaRrxHiVZu1muqpY9NNJAQAA4sKABQAAGiII/NlRpBsk7UON1Mu764tB4GeRAgAAxIEBCwAA1F0Q+NMlrZa0HzUywyRdUCz6h0gBAADi+CACAABQN319/vgo0hpJB1Mjs/4zDO2DZAAAAM3CGVgAAKCuxsd1t6S/UCLTPlAo+MWS81kSAAA0BWdgAQCAulu82PcZH9d3JQ1QI8MfJE1XHHigXjM0ZFVqAACAhn7uIAEAAGiEpUu9c9s2fUPSi6mRad/YvFmnrl9vE6QAAACNwoAFAAAaZnDQOzZu1NfcNUiNTLte0mAY2nZSAACARuC+BQAAoGGGhmz8wAP1ckmXUSPTjpV0YxD4LFIAAIBG4AwsAADQBG7Foj7trrNpkWlru7p0zPCw3UcKAABQTwxYAACgaYLA3yvpXEpk2npJR4WhbSQFAACoFy4hBAAATROGdp6kcyQ5NTKrR9LYokV+CCkAAEC9cAYWAABouiDwN7nrYjN+mZZhf44i9Y+N2Z9JAQAAposBCwAAxKJY9Fe466uS2qiRTe76m7sGxsbsFmoAAIDpYMACAACxKRR8mZm+JWkGNTLrjijSorEx+wUpAADAVDFgAQCAWBUKXjTTdZJmUSOz7snldNToqN1MCgAAMBUMWAAAIHaFgi8003JJ+1IjszaZ6ZhSyW4iBQAAmCxunAoAAGJXLtuaXE59kjZSI7P2jSKtLBR8ESkAAMBkcQYWAABIjN5ef0oup1WSHkWNzNrhrpeXy/YdUgAAgFpxBhYAAEiMsTH7jaQFkv5IjczqNNO3CgV/FSkAAECtOAMLAAAkzsKFfnA+r5WSnk6NzKpKemMY2mWkAAAAe8MZWAAAIHHWrLHbOzrUL+mn1MisvKQvBIGfRQoAALA3DFgAACCRVq60OyUV3fV9amSWSbogCPzDpAAAAHvCgAUAABIrDO3ezk4tlrSKGpn2kSDwc8kAAAB2hwELAAAk2sqVdn9Xl5ZJ4lvrsu29hYJfLDmfTwEAwENwE3cAAJAKQeBt7rrMTKdSI9O+Juk1YWgVUgAAgH/hN1wAACAVwtAqc+fqdElfpEamvVLS13p6vJ0UAADgXzgDCwAApIxbEOiTkt5Ji0y7QdJJYWjbSQEAADgDCwAApIx5GNq7JJ1Di0w7RtLw/PneTQoAAMAZWAAAILWCwN8i6UI+02Ta2rY2Hbt6tW0iBQAArYsPewAAINWKRX9DFOkSM84szyp3/dhMS8LQNlIDAIDWxIAFAABSLwj8ZEmXS+LG39n1m/Z2DaxaZf8gBQAArYcBCwAAZEIQ+LGShiTNoEZm/bmtTQOrV9ufSAEAQGthwAIAAJkRBB5Iuk4SN/7OKHf9zV0DY2N2CzUAAGgdDFgAACBTCgV/vqTvmekAamTWHfm8Fo+M2M9JAQBAa2DAAgAAmdPb68/J5bRC0hxqZNY9ZlpaKtkPSAEAQPbxbT0AACBzxsbsJ5J6Jd1Gjcza312rCwUvkgIAgOxjwAIAAJkUhvZbSQsl/YEamTVL0vV9fb6YFAAAZBsDFgAAyKwwtL9o54j1C2pkk5lmVqtaXiz6CdQAACC7GLAAAECmhaH9s7NTgbtupkY2manDXd8qFv1UagAAkNGf9yQAAACtYGDA961UdIOk+dTIrKqkN4ahXUYKAACyhTOwAABAS1i92jZ1d2uxu1ZSI7Pykr5QKPjZpAAAIFsYsAAAQMtYvty2zp2rZe66hhqZZWY6Pwj8XFIAAJAdDFgAAKClDA3Z+Ny5eqmkr1Ij097LiAUAQHZwDywAANCi3AoFfcZMb6NFhj/smi4plfQWySJqAACQ4p/pJAAAAK3LLQj0CUnvokWmfU3Sa8LQKqQAACCduIQQAAC0MPMwtHdLOocWmfZKd13Z0+PtpAAAIKWf2kgAAAAgBYGf6a4LzfgFX4bdsGOHBtets22kAAAgXRiwAAAAdikU/FVm+pKkNmpkVjgxoeNuusk2kwIAgPRgwAIAAHiAIPCXSbpCEpebZdcPOzt11IoVdjcpAABIBwYsAACAf1Ms+jHuGpLURY1sctePo0hHrVljG6gBAEDyMWABAAA8jGLRC+5aLqmbGpn1m1xOi0ZH7e+kAAAg2RiwAAAAdiMI/HmSvifpEdTIrD+3tWlg9Wr7EykAAEguvmUHAABgN8LQfmSmgrv+QY3MetzEhEr9/f4kUgAAkFycgQUAALAXxaIf4a5Vkg6lRmbdkc9r8ciI/ZwUAAAkD2dgAQAA7EWpZL/L5bRQ0i3UyKyDqlWFxaK/kBQAACQPAxYAAEANRkftr5J63cUZOtm1v7tW9/V5HykAAEgWLiEEAACYhAULfP+2Ng1L4kydjHLX1nxeLxkdtZXUAAAgGTgDCwAAYBLWrrV7JA24a5Qa2WSmmdWqlheLfgI1AABIBgYsAACASQpD2zJ7tpZJ+h41sslMHe76VhD4adQAACB+DFgAAABTsHy5bZ0zR8dL+jY1Mivvri8Fgb+OFAAAxIsBCwAAYIqGhmx8zhydbKYvUyObzJSTdGmx6O+gBgAAMf5MJgEAAMB0uQWBLpD0dlpk2nlhaOeQAQCA5uMMLAAAgGkzD0M7S9JHaZFp7y0U/DwyAAAQw6ctEgAAANRPEPh7JZ1LiUz73zDUmZJFpAAAoDkYsAAAAOqsUPA3S/rsrvsnIZuulPTqMLQKKQAAaDw+VAEAANRZuWyXmOlUSYwb2XWKu67s6fF2UgAA0HicgQUAANAgxaIf765vSuqkRja568bxcZ20bp1towYAAI3DgAUAANBAhYIvNdPVkrqokVnliQktu+km20wKAAAag0sIAQAAGqhctuFcTke56z5qZFahvV0jS5b4AaQAAKAxOAMLAACgCYpF73HX9yQdSI3M+km1qiVr1tgGUgAAUF8MWAAAAE3S3+9PrVS0ykyHUCOzfpvLaWB01P5OCgAA6ocBCwAAoIl6e/1xZlptpsOpkVl/2TVi/ZEUAADUB/fAAgAAaKKxMftze7uK7vo9NTLrsVGkNcWiP40UAADUB2dgAQAAxKC/3w+qVrVC0rOokVl3mGlJqWQ/IwUAANPDgAUAABCTBQt8/7Y23SBpHjUy6x5JR4eh/R8pAACYOi4hBAAAiMnatXZPR4cWSVpNjczaX9Kqvj7vIwUAAFPHgAUAABCjlSvt/q4uHSvpu9TIrFnVqpYXi76EFAAATA0DFgAAQMyGh23HnDl6mZmGqJFNZpoZRbquWPQTqQEAwOQxYAEAACTA0JCNH3igXi7pMmpkk5k63PXNIPDTqAEAwCR/jpIAAAAgSdyKRX3aXWfTIrsPsrveXi7bRaQAAKA2nIEFAACQKOalkr1D0jm0yO6DbKb/KRb9HaQAAKA2DFgAAAAJFIZ2nnaOWE6NTDJ3fToI/FxSAABQww9OEgAAACRXEPib3HWxGb94zCp3faJc1jmSMVYCALAbDFgAAAAJVyz6K9z1VUlt1Mis/w1DnSlZRAoAAB6KAQsAACAFCgVfZqZvSZpBjWxy19fNdFoYWoUaAAA8GAMWAABoOUHgszo6NDOKNKtaVZd2jULu2l+SzNQZRZq563+fbaa8u9olzZri3/Jes533sooiuaR7//X/yOVUddd9kipm2pzLaZuZtu/Yoc35vCbC0P7ff7ZY9CVRpGvMdv6zIYMfzk1DBx6oVw4N2Tg1AAB4wM9IEgAAgPRwW7JE++/YoQPctX8ut/NfzXb+q7sOyOW0v6RZ7potaaakmbv+MzMldUnaN3V/ate4me6XtHXXP/8snguZdsOOHRpct862kQIAgJ0YsAAAQKyCwGdFkQ7O5zU3ijTXTIdImmOmue462F1zzTRH0oHSzjOkgKxz16iZjg9D20INAAAYsAAAQAMFgT/STI+S9Ogo0mMkPXrXv3+Mux5lpoO186woAA+1TtLRD7yMFACAVsWABQAApshzvb16VD6vw931OLOd/+r+oKGqk07AtPykWtWSNWtsAykAAK2MAQsAAOzWsmU+c/NmPekB49Thu/73w810mBiogGb4TXu7Blatsn+QAgDQqhiwAACAFizw/dva9DQzPdVdh0t6mrueKumxZspRCIjdX3I5DYyO2h9JAQBoRQxYAAC0kCDwx7rrGZKensvpKe56sruOMNNs6gCJd5uZBkol+x0pAACthgELAIAMGhjwfatVPUHS06JIPWZ6qqRna+c3+QFIKXfdmctpcalkP6MGAKCVMGABAJByAwN++MSEesz0XEnPkvR0SYdSBsgmd92dz2vp6KjdTA0AQKtgwAIAIEUWLfJDxsfVY6YeST2SXihpDmWAlnO/mY4vlWyEFACAVsCABQBAQgWBP1rSke56/q6zq3ok7U8ZAJLkrq1mOjEM7XvUAABkHQMWAAAJ0NPj7bNn65nuWmCmngfctwoAdstd47mcXlEq2dXUAABkGQMWAAAxeMClgPMlLdDOs6tmUAbAFFQlvS4M7SukAABkFQMWAABNMDDgh1erWhBFmm+mxZIeSxUAdeTuenu5bBeRAgCQRQxYAAA0wK7BakDSAncF4lsBATSeS3p3GNqnSQEAyBoGLAAApn/MmOvt1bNyOfVJKmjnJYHcbB1APB/wTR8ulew/KAEAyNTPNxIAADB5Cxf6wbmcFkgaMNMxkh5FFQAJ8tkw1Nskc1IAALKAAQsAgBrMn+/d7e16oaSBXf/TQxUACff5MNQZkkWkAACkHQMWAAAPIwi8zV3zzHS0pAF3PddMOcoASBN3XT53rk4fGrIqNQAAacaABQDALkHgB7qrmMtpmbuOFfexApANy7u6NDg8bDtIAQBIKwYsAEAL81yxqOe4a0DSsl1nXHGWFYAsGt6xQyeuW2fbSAEASCMGLABAS5k/37vb2nSUpGMlHWWmuVQB0CJCScvC0LaQAgCQNgxYAIDMCwI/cNe9rI5119GS9qEKgBb1o3xeR42M2F2kAACkCQMWACCTBgb88EpFy7TzTKtAUhtVAECS9KtqVYvWrLHbSQEASAsGLABARrgVi3qBu14i6XhJT6YJAOzWb3I5LRodtb+TAgCQBgxYAIBUKxb9ae4alHSKpCdQBABq9ldJA2FofyAFACDpGLAAAKnDaAUAdfNPSYvC0H5JCgBAkjFgAQBS4QGj1SskPZEiAFAf7rrTTEvC0H5KDQBAUjFgAQASq7fXn5LL6RRJJ0t6PEUAoGHuMdPSUsl+QAoAQBIxYAEAEqW/3x8RRTrRXadKmk8RAGia+yW9OAxtNSkAAEnDgAUAiN28ed7V0aFjzXSqpKMktVEFAGKxw0wvK5XsWlIAAJKEAQsAEIvBQc9v2KCimU5110skzaIKAMTPXeNmOiUM7dvUAAAkBQMWAKCpikV/WhTpdEmvNNNcigBAIlXcdXq5bFeQAgCQBAxYAICGW7rUZ2/frhe761WS+vn5AwCp4GY6q1SyC0kBAIgbBxAAgIYpFr0nivQGM71CXCIIAGnkkt4ThvYpUgAA4sSABQCoq0WL/JCJCb1K0uskPYEiAJAJ54WhnUMGAEBcGLAAAHXguWJRS931JklLJeVpAgCZ8+kw1Lslc1IAAJqNAQsAMGX9/X5QtapXS3qjpMdRBACyzV2Xlst6s2QRNQAAzcSABQCYtGLReyS93V0nS2qnCAC00AGE6Sp3nRqGVqEGAKBpP39IAACoxcCA71ut6mXuequkp1MEAFrackkvDUPbTgoAQDMwYAEA9qi315+Tz+ut7nq5pBkUAQDsMrxjh05ct862kQIA0GgMWACAh+G5QkHHmOltkgboAQDYjTVdXTp2eNjuIwUAoJHaSAAA+JcFC3z/fF6vM9OZkg6jCABgLxZu366TJV1KCgBAIzFgAQDU2+tPNNNbzPRaSftQBABQC3ddGIbGeAUAaDguIQSA1j3ssGJRS911lnZeJsjPBABA7T9FXJeWy3qTZE4NAECjcQYWALSYwUHv2LhRJ7vr3e58myAAYEq+PXeuzmC8AgA0C79tB4AWMX++d7e363RJ75R0KEUAAFN0raSTwtAqpAAANAsDFgBkXBD4IyW9SdLbJO1PEQDANKyWtCwMbTspAADNxIAFABnV2+vP2HVj9lMlzaAIAGA63PX9zk4tXrnS7qcGAKDZGLAAIGOKRZ/vrvdLOor3eQBAPbjr5pkztWh42O6jBgAgDhzYAEBGBIEvkPReScdSAwBQR7/I51UcGbG7SAEAiAsDFgCkXBD4gKSPSTqSGgCAOrulWlVhzRq7nRQAgDi1kQAA0sitUNCxZvqgpOfTAwDQALfmcloUhoxXAID4cQYWAKSK5woFnSjpI2Z6Kj0AAA1yh5kKpZL9jhQAgCTgDCwASIHBQc9v3KhT3PVBSU+gCACggTbk8+obGWG8AgAkB2dgAUCi7Tzjykwfk3QEPQAADbbJTP2lkq0nBQAgSTgDCwAS6f/d4+o/JD2bHgCAhv/kcW2VtCwMGa8AAMnDgAUACRMEPuCu88z0XGoAAJrBXeO5nE4olWwNNQAAScSABQAJEQQ+IOm/JD3fuMAbANA8E5JOKpVsBSkAAEnFgAUAMQsCDyT9t6QjqQEAaLKqu04pl205KQAAScaABQAxKRb9aZI+7K5BagAAYuCS3lQu2xApAABJx4AFAE02MOCPmZjQ+931Wkl5igAA4mCmd5VK9kVKAABS8XOLBADQHP39/ohqVe+W9HZJMygCAIjR+8LQziUDACAtGLAAoMEWL/Z9xsf1Fknvk7QvRQAAsR4AmD5WKtmHKAEASNXPLxIAQGMEgbeZ6Q3u+pCkgygCAEiAz4ShnU0GAEDaMGABQAMEgQ9IOl/SM6gBAEiIr4ShTpfMSQEASBtu4g4AddTb60/J5fRJScdQAwCQIN+eM0evY7wCAKQVZ2ABQB309/sjKhV9yExnim8WBAAky7WbN2tw/XqbIAUAIK04AwsApmFw0Ds2bNCbq1V91IwbtAMAEme1pJMZrwAAaccZWAAwRYWCLzPT/0h6HDUAAAm0TtLiMLQtpAAApB0DFgBMUl+fP7da1UVmehE1AAAJ9cOuLg0MD9t9pAAAZAEDFgDUaMEC3z+f10e4zxUAIOF+kc+rODJid5ECAJAVDFgAsFeeKxb1Snd9StIcegAAEuwP1ap616yx20kBAMgSbuIOAHtQKPjzzXSRu15IDQBAwt0qaRHjFQAgixiwAOBhBIE/0l0flfQ6STmKAACSzF135nJaVCrZX6gBAMgiLiEEgAfo6fH22bP11ijSh800myIAgBTYaKagVLJfkQIAkFUMWACwS7HoPe76vKQeagAA0sBd95mpPwztR9QAAGQZlxACaHlB4Pu566NRpLeYcbkgACAd3LU1n9ey0VHGKwBA9nEGFoCWVij4oKTPmmkuNQAAaeGucTMdH4b2PWoAAFoBZ2ABaElB4E9w18VmWkwNAEDKTEg6ifEKANBKGLAAtJSeHm/v7tY7JH3ETDMoAgBImaqkU8tlW04KAEArYcAC0DKKRe931yWSnkgNAEAKubteXy7bN0gBAGg1DFgAMm9gwPedmNAn3PV6ce8/AEB6vbtcti+TAQDQijiQA5BpQeDHSrpE0qOpAQBIK3f9/8pl+29KAABaFWdgAcikxYt97sSEPuWuV1EDAJByH2e8AgC0Os7AApA5hYIPmulzkg6kBgAg5T4bhvZWMgAAWh0DFoDMWLTID5mY0OckHU8NAEAGfDUMdbpkESkAAK0uRwIA6ee5YtHPmJjQb8V4BQDIhm/MmaPXMl4BALATZ2ABSLW+Pj+sWtWXzNRHDQBAFrjrui1bdNL69TZBDQAAduIMLACpVSz6qVGkXzBeAQAyZMRML2O8AgDgwTgDC0DqBIE/0l2fN9Nx1AAAZMg6SYvD0LaQAgCAB2PAApAqu75h8BJJj6AGACBDflqpqG/tWruHFAAAPFQbCQCkwcKFPief1yWSTqQGACBjfpnPayAMGa8AANgdzsACkHjFoh8dRfqCmQ6hBgAgY/5Qrap3zRq7nRQAAOweZ2ABSKylS3321q26yF2nGnM7gPq5V9Imd20y0/2S7pe0zUzbJW2JIk2Y6T5JVUn/OiPmfjONP+CvsT2KtG2yf2Mz7WOmjihS3kyzd/2fuyW1uatd0ixJbbmcuqNI+5pppqR93LWvmbqlnf+ehzAb3PW39nb1hyHjFQAAe/0cRQIASVQo+DwzXSnpcdQA8DAH/pGZ7pK08V//464NZtrwr39vprvddV8UaVNHhzZJ2rR6tW1K8587CPzR7lphpqfyLEi926NIhbExu4UUAADsHQMWgKQdnLVJ+oCk94uzRIGWs2uYukPSP3b9z9/NdLu7/m6mf+ZyulXSHSMjulMyb6U2/f1+UKWiMTM9iWdK6t0lKQhD+yUpAACoDQMWgMTo6/PDokhXSFpIDSCzJrTzDKl/mOlP7vrTv/61rU1/uuce3bp+vU2Q6cGCwPeTNCrpOdRIN3fdZ6b+MLQfUQMAgNpxdgOARCgW/dRqVRc94J4wANJrh7v+aKbfm+mWKNItkv5gplvCUP+QLCJR7QYGfN9KRavFeJUF9+dyOrpUYrwCAGCyOAMLQKx2nVVwiaSTqQGkzgZJv5T0azP9Oop0y66R6m+MVHV7j5y1655XL6JG6m2XtCwMbTUpAACYPM7AAhCbvj7vrVZ1hZkeQw0g0TZK+qWZfiPpl1Gk35jpF2FoG0nTOPPmeZe7rmW8yoQJM72sVGK8AgBgqhiwAMTALQj0nijSx82UpweQKLdLWi9pvbvWt7frV6tX25/I0lyDg96xYYO+JamPGin/ieeKJJ0WhnYdNQAAmDouIQTQVP39flC1qq9JGqAGEO9B9a4zqn4o6ae5nH6Sy+lnq1fbJurEKwi8zV3fNNMJ1Ej/S03S68PQLiMFAADTwxlYAJqmWPRCpaKvm+kQagBN96Azq2bM0E0rVtjdZEkaz0n6CuNVZryH8QoAgPpgwALQlAOyYlEfcNeHuGQQaIpt7vphLqeb3HVze7tuXrXK/kGWxL9XWhDo85JOoUX6men9pZJ9ihIAANQHAxaAhlq40Ofk87rCXUuoATTMZkk/kHSTpLWS1pbLtp0s6RIE+oSk11Ei/cx0Qalk/0UJAADq+POVBAAapa/P+6JIV0p6JDWAurpNUihprZnWlkr6tWROlvQKAv9vSedQIgMfrk0XlUr2NkoAAFDnn7EkAFB/O79lUNLHJS4ZBOpgo6T/087BanWppB8zWGVHoeAfNNN/UCITvhqGOl2yiBQAANQXlxACqKtd3zJ4paR+agBTtknSmKTRfF6jIyP6BYNVNhWL/g53xquM+OacOXot4xUAAI3BGVgA6iYI/HnuutpMj6EGMDnu+rWZlktaPWeOxoaGbJwq2VYs+unu+iKfxzJhRVeXjh8eth2kAACgMfjABKAuCgV/s6TPmKmDGkBNNkhaKWm4o0OrVq60O0nSOoLAT3PXl8yUo0bqjUg6Ngz54gTg397nFrjrg5LOLZetRBEA08UlhACm++FkhqRLJL2aGsAeuaQfuWu5mYbDUD/mUqPWVCz6S911GeNVJtzU0aHjV65kvAL+XRja2kLBvzdjhn5GDQD1wBlYAKast9cPNdO3zfQCagAPa7uktZKul3R1GNptJGltQeBHSfqupE5qpN7PKhUV1661e0gBPFSx6EdEkW420yZ3nVgu2w+pAmA6GLAATPVDSSGK9C0zzaUG8CAbzTQcRVpeqeh7N91km0kCSQoCH5C0XNIMaqTe7/J5FUZG7A5SAA/7fjfLXT8w01N3/Z+2u+uMctm+TB0AU8WABWCS3IJA75H0cUl5egCSu/6Wy+lqSVeXSlrHpYH4d3193lutathMM6mRen+oVtW7Zo3dTgpgt58VvyXppIf5eXnhli161/r1NkEnAJPFgAWgZvPne3d7u74s6URqAPqzpKvN9O1SSTdL5iTBw+nr8xdUq1plptnUSPlhuetv+bx6R0ftr9QAHl4Q+LskfXIPr6Oxtja9lDMYAUwWAxaAmhSLfoS7viPpKdRAC/uDpG/vHK1sPTlQw4HcsyWNStqfGqn3zyhS79iY3UIKYLfveYGkVdr7l4XdZqYX87MUwGQwYAHYq2LRl7jrG5L2owZajbv+oZ2j1VAY6ibOtEKt+vv9SdWqypIeSY3UuzeK1Dc2Zj8hBfDwFi70g/N5rZd0cI3/le1memOpZJdTD0AtGLAA7FGx6G9w18Xa+2/SgEwdrJppeRRpyEzDYWgVkmAy+vr88dWqxsx0CDXSzV33SRrgG9SA3evp8fbubo1KWjCF19iF5bLO5v6RAPaGAQvAwxoc9I4779QlZjqdGmgR2yWtNtPQrFn69vLltpUkmIog8EdLGpP0OGqkm7u25nI6ulSyMjWA3SsU/GIznTGNv8RwW5tevnq1baImgN1hwALwEIsX+9zxcV2tKfwWDUihmyR9uatLQ8PDdh85MB27LqEpS3oiNVJvh7uWlcu2ihTA7gWBv1LSFdP967jr12Y6PgztD1QF8HAYsAA8SH+/P7Na1XWSDqMGMuw2d13e1qavjozY78mBeli40Ofk8ypJeho1Um/CTIOlkl1LCmDPnxsrFa0z08x6/PXcdXcup5eWSjZCXQD/jgELwP9TLPrRUaSr+Kp3ZNQOM10XRbqC+1qh3gYGfN9KRSOSeqiRbu6Kcjm9qlSyr1MD2L0g8P0k/UjS4+v8l65IOisM7WIqA3ggbsoMQJJbsaj3RZE+ZqYcPZCxg9Gfm+nSSkVfX7vW7qEI6m3+fO+uVPQ9MV5l4wfizm9FY7wC9vxSyUm6XPUfr/51jPrZQsEPnztX7xkasiq9AUicgQW0vKVLvXPrVl1qplOpgQzZbqbl7ro0DG01OdAo8+Z5V2enbpQUUCMT3h2G9ikyAHtWLPqH3PXRJvytvtfVpZdxj0oAEgMW0NL6+/2gSkXXmekF1EBG/FLS5yV9LQztXnKgkZYu9c5t23StpCXUyIQPhKF9nAzAnhWLviSKdGMTz9r/qaRlYWi3UR9obQxYQIsKAn+ypBvF17wj/bZL+mYup0tHR+375EAz9PR4e3e3hiQdT41MOC8M7RwyAHv9/PhY7bzv1SOa/Le+XdJxYWg/4lEAWhcDFtCC+vq8t1rVd8x0ADWQYre66xIzfSEMbSM50CyDg57fsEFfk3QyNTLh4jC0t5AB2LMg8BmS1iqm+/25a6ukV5bL9h0eDaA1cbNmoPU+fJwURVrBeIUUW2+m0zZv1uPLZftvxis0+RDKNm7UJWK8ysaj6bo8DPU2SgA1+axi/LIKM80009VB4O/loQBaE2dgAS0kCPzt7jqfbxpECu0w07ckfbpUsp+RA/FwKxT0WTOdQYsMPJqua8z0sjC0CjWAPSsW/Q3u+nyCXr8Xlss6W7KIRwdoHQxYQAsIAm8z0+fc9XpqIGVud9dFbW26dGTE7iIHYn4v/aSkd1EiE67fvFknrF9vE6QA9vre9zxJayTNSNg/2tU7duhV69bZNh4loDUwYAHZ/9AxS9I3JB1DDaTILZIulvT5MLTt5EAC3ks/IunDlEg/d42a6RjeW4C9W7LED9ixQz9Scr/05wcdHTpu5Uq7k0cLyD4GLCDDFi70g3M5XW+m51IDKXGTu84rl3W9ZE4OJEEQ+FmSLqBEJvyfpEVhaFtIAeyN54JAN0g6KtH/lK4/tbVp6ciI/Z7HDMg2Biwgo3p7/Rm5nG6QdCg1kHATkr4VRfr02Jj9hBxIkiDwt0i6iBKZ8BNJfWFo95ICqOn97z8lvT8l/7gb3HVMuWw/5JEDsosBC8igQsEXmuk6SftRA0m16+uwv+iuT42N2a0UQdIUi366u77I56VMvN/8OooUrFljG6gB1PT+d5y7vpuy978tZjqpVLIVPIJANvGBDMiYQsGXmembkrqogaR+wHTXl6JI565ZY7eTA0kUBH6SpKsktVEj9f7Y3q7eVavsH6QAanr/e4KkHyqdvwitmOmNpZJ9iUcSyB4GLCBDikU/1V2XccCFhLpL0mc7O3XhihV2NzmQ4PfS4901JKmdGql3WxSpd2zM/kwKYO/mzfOuzk7dJOk5Kf5juJnOKZXsEzyiQLYwYAEZEQT+du28yTCvayTrU6TrTjNd0tamC1avtk0UQZIVCr5o1yXYM6iRehuiSIWxMfsNKYCaP09+RdJpGfn8cWG5rLMli3hkgWzgQBdI/49nKxb1aXedTQsk7IPjPySda6Yv8HX1SMmBWyDpRnEJdhbef+52VzA2Zr+gBlDze2DmvrTCXZdv2aLXrV9vEzzCQPoxYAEp1tPj7bNn6zJ3vYoaSJB/Sjp3xw5dum6dbSMH0qBQ8HlmWilpFjVSf8B6n6QBvo0MqF1fn7+oWlXJTB0Z/OPdsGOHBvlMAqQfAxaQUsuW+czNm/UtScdQAwmxUdKnurt10fLltpUcSIti0Z8VRRo10wHUSL1tZlpaKlmZFEBt+vv9oGpV6yU9KsN/zDVtbVrGrQyAdGPAAlJowQLfv61NyyXNpwYS4C5Jn+3q0vnDw3YfOZAmxaIf4a6ypIOokW7uGs/l9JJSyW6kBlCbIPA2SaslFVrgPeLHUaSj1qyxDTzyQDoxYAEp09fnj4oirZD0NGogZve66xNmuigMbQs5kDa9vf7EXE5jkh5JjdSrSBoMQ/suKYDaBYF/StI7W+iP/JtcTotGR+3vPPpA+jBgASnS1+eHRZFWS3oCNRAXd41L+kpnpz64cqXdSRGkUW+vH7prvHosNVL/nhSZ6dQwtCupAdQuCPzFkq5pwWPCv0aRFo2N2S08C4B0YcACUqK/359UrWq1pEOpgbgOEnM5XV2t6r1jY/ZniiCtdp3JWpb0eGqk/61J0pvD0D5PCqB2xaIfEUW62UyzWzTBHWZaUirZz3g2AOnBgAWkQBD40yWtEpe5IKYDRHd9x10fGBuz35ADabZ4sc8dH1dZ0pOpkYU3J72jXLYLKAHUbv58725v182t/j7orrslHcU3lgLpkSMBkGx9ff5cSSUxXiEeoZnmlct2IuMV0m7JEj9gfFwrxXiVlYPPDzFeAZN+5Vh7u77E+6BkpgPMtKpY9BfyvABS8rolAZBchYI/X9L3+Gp3xHBg+HtJHyiXbYgayIKlS3321q1aZaYXUCMTPhOGdjYZgMkpFv097jqPEg9yv6Rjw9BCUgDJxoAFJFRfn/dGka6X1E0NNIu77jbTJ7q69JnhYdtBEWTBsmU+c/Nm3agW+Jr4Fnmf+ly5bGdSApicQsGLZlopqY0aD3G/u5aVy1YiBZBcDFhAAgWBH6Wd3wrTRQ00yYS7vmym94ehbSQHsmJw0Ds2bNB3JS2lRgY+uJquKJX0askiagC1W7jQD87ntV7SwdR4eO7ams9r2eiojVIDSOjnABIAyRIEfqykIUkzqIEmuV7S2WFofyAFsqSnx9u7u3W1pGXUyITvSHppGFqFFMCk3wtHJS2gxp65a6uZjg9DW00NIHm4iTuQIIWCv3zXB3TGKzTDTyQtDENbxniFrBkc9Pzs2bpSjFdZccOcOTqZ8QqYvO5uXSDGq5qYaaa7rg0CH6AGkDwMWEBCFAo+aKbLxX0J0Hj3SDprzhw9PwxtLTmQPW4bNuh/3TVIi0wo7dihwaEhGycFMDnFor9CEveMmwQzzZR0faHg/AIESNrrkwRA/ILAT5J0lRiv0MhDeleUy+nKSkXvXLPGNlAEGX2mW7Goi931Zlpkwg8mJrTopptsMymAyenv92dWKlq3a5DB5D83jedyGiyV7DpqAMnAgAXEjPEKTfJDM721VLIfkAJZVij4eWZ6DyUycfD48xkzVFyxwu6mBjDpz5f7SfqRpMdTY1rvQ+NmelkY2nepAcSPSwiBGBWLfqKkr4vxCo3zTzO9MQx1JOMVWuCA7T8ZrzJz0Pj7tjYtZrwCpvQKMklfEuPVtJmpw13fLBT8JdQA4seABcSkWPQT3XWVpHZqoAGqkv6nq0tHlEp2KV85j6wrFPx9kt5PiQwcerv+lM+rb2TE7qAGMHlBoPdLYnCpEzN1mOmbu37xDCDO1yMJgOYrFv0Ed31DjFdojB/mcnrT6Kj9mBRojYM1f7ukz1AiE26LIvWOjdmfSQFM6TPmkijSjWacqNAAE+46pVy2IVIA8eCNDWj+B4uj3fV1MV6h/jZp57cLzmO8QqsoFPw1ki6gRCZsiCItZrwCpmZgwB/jrq8xXjVMu5muKhScb7gFYsIZWEBzD7SWmuk7kjqpgTq7Pop0xtiY3UoKtIog8Fe666scrGXCplxOfYzvwJTfD2dIWiPpedRoLHeNS3pxuWzD1ACaiw98QJMUCr5M0nfFeIX6+qOZjgpDW8Z4hVay614kX2a8yoTNuZwWM14B0/JZMV41xa57Yg0FgS+gBtDk1x8JgMYrFHyRmZaL8Qr1U3HX+ePj+si6dbaNHGglxaIfE0W6xkwd1Eg3d23N5XR0qWRlagBTEwT+OklfoETTbTJTf6lk60kBNAcDFtD4DxVHSlolaRY1UCe/cNdry2X7ISnQavr6vC+KdIOkGdRIN3eN53I6oVSyG6gBTPlz5rMlfV9SFzVisdFMQalkvyIF0Hicdg80UH+/P1PSjWK8Qn1MSDpvzhw9j/EKrahQ8HlRpGvFeJUF1VxOr2K8AqZuyRI/QNI1YryK04FRpNFi0Y8gBdB4nIEFNEhvrz8xl9MaSQdRA3Xwf2Z6Hb/hQ6vadZbBqKT9qZF6Lun1YWiXkQKY8ssoFwS6QdJRtEiEW3M5LRwdtb+SAmgczsACGmBgwB+Ty2mVGK8wfdsknTNnjhYwXqFV9fb6MyStFuNVJo66JZ3BeAVMT6Ggj4nxKkkOjSKtCgJ/JCmAxuEMLKDOFi3yQ8bHtcZMh1MD0zrKc43l8zp9dNT+SA20qmLRj3BXWfxCIBsfPE3vLJXsfEoA03pfPM5d3+VYLpF+VqmouHat3UMKoP44AwuooyDwAycmtJLxCtO0XdI5c+eqj/EKrWxgwB/jrhVivMoEM32Y8QqY9mfNJ7jrq2K8Sqpn5fP63vz53k0KoAGfJUgA1MfSpT572zaNSHoeNTBV7rrZXa8eG7PfUAMtfpD2aHeV+YVAZvxPGNpZZACmbt487+rs1E2SnkONxLupo0NLVq60+0kB1A9nYAF1+kCxdauWi/EKU1eRdN6WLVrAeIVWt3ixz5U4mzUr3PWlMNTZlACmp7NTl4jxKi3m79iha5Yu9U5SAPXDGVjANPX0eHt3t64TN9LE1A/ufm6m08LQfkoNtLr+fn9EtaqSpGdQIxPvb5eXy3qNZBE1gKkLAn+LpIsokbKDbdPQgQfq5UNDVqUGMH2cgQVM76O5zZ6ty8R4hampSjp35ky9gPEKkAYGfN9qVSvEeJUVV5vptYxXwPT09fmL3PVpSqTwSME1uGGDLqYEUB+cgQVMQxD4JyW9ixKYglvN9KpSycqkAKRly3zmffdp2Ey91MiEVV1dWjY8bDtIAUxdf78fVK1qvaRHUSPVPhKG9lEyANPDgAVMURD4mZI+SwlMlruumTFDr1+xwu6mBvD/bkx8g6QiNTKBmxcD9fms2SZptaQCNTLx+e9t5bJxGSgwDVxCCEztA8XJ7rqQEpikbZLOKpftRMYrYKfBQe/o7NS3xHiVFT+YmNBSxitg+tx1nhivMsNMFxSLfiIlgGm8jkgATE5fn/dFkW6UxLeKYDJ+FEV6xdiY3UIKYKfBQc/feae+bqaXUiMTB9s/nzFDRQZ6YPqCwF8s6RqO1zJnu7sWl8u2hhTA5HEGFjAJxaL3RJG+K8YrTOaYznXhnDmaz3gFPOilkduwQV9lvMqMW8y0hPEKqMvnzSPc9VUxXmXRDDMtLxb9WaQAJo83RaBGQeBPkLRW0kHUQI1ud9cp5bKVSAE8kFsQ6FJJr6NFBh5N15/yefWOjtrfqQFMz/z53t3erpslPZkamfb3KNK8sTG7lRRA7TgDC6jBwoU+x103iPEKtR/QjVar6mG8Ah4qCPQJMV5l5iCsvV2LGK+Aunx6sI4OXSbGq1bwqFxOw0Hg+5ECqB1nYAF7MX++d7e1KTTTc6mBGlTc9aFyWedJFpEDeLAg8P+WdA4lMnCo7brTTIUwtN9SA6jL++O7JH2SEi1l9ebNOnr9epsgBbB3nIEF7PmDRFt7u77JeIUa3SqpWC7bfzNeAQ9VKPigGK+y4p5cTosZr4C6feYMJP03JVrOQHe3LpWcE0uAGjBgAXt2gaSlZEANlufzek4Y2lpSAA9v7lxdY6YvUyL17pd0XKlkPyMFMH0LF/rBkr4uqY0aLenVQaAPkQHYO5ZeYDcKBT/bTOdTAntRkfTxMNR/cNYVUAu3IND5ks6iRSptk3R0GFpICmD6enq8vbtbo5IWUKO1fzhKOj0M7SukAHaPM7CAh1Es+vGSPkUJ7MVfcznND0P7COMVUCvzMLSzzbhUJnVHV65xd53IeAXUT3e3LhDjFXaeWHJpEPgAKYA9v1AAPECx6D3uKkvahxrYw4HcyrY2vWJkxO6iBjA1QeDv1c57vvB5JPkqZjq5VLKrSQHU7T3wlZKuoAQeYJOkI7m/IPDwOAMLeIDeXj80inSdGK+wey7p43Pn6mjGK2B6wtDOc9eZ7uIMxiS/6bkid53OeAXU/bXFfVbx7/aVdN2SJX4AKYCH4jeewC7z53t3e7vWSHoWNbCbD5r35XJ6Talk11ADqJ9CwV9upq9KaqdGAt/6XGeWy3YJKYC6v7wsCPQed/2XGScW4EGfOcfmztWioSEbpwbw/8cbJSBpcNDz7e26UoxX2L3fuutIxiug/splu0rSCZK2UyNx3sd4BTSKeRjaebmcjtPOS8eAnc8MU++GDfocJYAHY8ACJG3YoM9IWkYJ7OZDxFUdHXre2Jj9hhpAY4ShXS9pqaTN1EiMj4ahnUcGoLFKJbvBTC+UxH2P8ECvLRb9DDIADzguIwFaXRD4WZIuoAQexoSZ3lUq2YWkAJqjUPB5ZrpB0v7UiNWnw9DeRQageZYs8QO2b9dVZlpMDexSMdNRpZKNkAJgwEKL6+vzxVGkGyXlqYEHctedZjoxDG0tNYDmKhb9We5aIekgasTi82GoN0vmpACaa3DQ8xs26DxJ76QGdn0mvdtdR46N2S3UQKtjwELL6u31x+Vy+qGkR1AD//ZB4edmOj4M7S/UAOJRLPoR7lol6VBqNNXXwlCnScY3QwIxCgI/2V2XmWkmNSDpd5KODEO7lxRoZdwDCy1p/nzvzuW0XIxXeKjrZ87UQsYrIF6lkv2urU0L3PV7ajTNdyW9hvEKiF8Y2jfMNF/SX6kBSUe465tB4G2kQCtjwEIL8lx7u74u6Wm0wAOfGJLOC0MdPzxs95EDiN/q1fa3tjb1SvoZNRpuVVeXTg5Dq5ACSIYwtJ9Kep6kkBrYdW+0T1ICrYwBCy0nCPRxScdSAg9wv5kGw9DO4cwDIFlGRuyOzk71SfoBNRqmvGOHjh8eth2kAJIlDG3jnDlaIumL1ICks4LAX0cGtCrugYWWEgR+kqRv8dzHA9xmpheXSraeFEByLV7s+4yP6zuSFlGjftx1c6WigZtuss3UABL/Ofbt7jrfjJMQWtyEu5aUy1YiBVoNB/FoGb29/hwzreVmmHjAgdv329p0wsiI3UENIPmWLvXObdt0laSXUKMuftHZqWDFCrubFEA6FIt+oruukNRFjZZ2l3be1P0PpEArYcBCSwgCf6SkH0p6NDUgSWa64sAD9bqhIRunBpAePT3ePnu2vuqul1NjWn7X0aHelSvtTlIAqftcu0A7v3SBLyNqbb+UNC8MbQsp0DLHcCRAKxzszJql1WbqpQYkyV0Xlss6SzKnBpDKV7EVCvqMmd5Giym9B/4tn1fv6Kjx7WZASvX1+eOjSDdIOoIaLf1+/q1y2V5GCbQKrp9G5nV36xLGK+z6IT8u6dXlsr2d8QpIM/OdI7Q+RYtJ+3t7u4qMV0C6jY7aHyUtcNf3qdHCPw1NLw0Cfzsl0DLPeRIgy4pFf4O7Pk8JSLrHXSdyw0sgW4LA3yvpXErUZEM+r2BkxH5NCiAbli71zu3b9WUuq25pFXf1lcu2hhTIOgYsZPmg5tmSvi9ucgnpz1GkY8bG7DekALKnWPQzokgX8c1ce7TJTP184yqQRW5BoA9L+jAtWtY/29vVs2qV/YMUyDIGLGTSggW+f1ub1kt6HDVa/COd6+a2Nh3HNw0C2RYEfoqkr0hqo8ZD3ge3SjqK384DmX8ffK2kSyS1U6MlhZIWhaFVSIGs4jeVyOJH9Vxbm64U4xWk786erSLjFdACn9pDu9JMJ0raTo0H2SbpWMYroCXeBy/L5XSsu+6jRksK3PVxMiDLOAML2XvnDvzDkj5CiZZ3cRjqbZJFpABaR7HoS6JI15hpZqu3cNd4LqeXlEp2I88MoHX09flzq1UNm2kuNVrvrV/SCWFo3yUFsogBC5kSBD4g6XuS8tRoaeeFoZ1DBqBlfxYskHS9pH1bOENV0ilhaN/kGQG0noEBP3xiQqvMdDg1Ws7mKNILufcrsogBC1n6Qf2YSkXrJR1IjZY+YDszDI1vngRaXF+fPzeK9D1Jc1rwj++S3hCG9kWeCUDrWrjQD87ntULSM6jRcn7Z0aEjV660+0mBLOEeWMiEpUu9s1LR1WK8amU73PVyxisAkjQ6aj+W1Cvpthb7o7uZ3sJ4BWDNGru9s1OBpP+jRst5+sSEvkAGZA0DFjJh+3ZdJOl5lGhZ9+ZyWlwu2xApAPxLGNpvczktkPSHFvpjv69Uss/x6AOQpBUr7G5JiyStokZrcdfLCwV/MyWQJVxCiNQLAj9NO786Ha35w/kfbW1aOjJiP6cGgIezaJEfMjGhlZKelukPdaaPlUr2IR5xAA/zeXmGpG9IOp4aLWVHLqfe0VG7mRTIxGcdEiDN+vv9SdWqfiSpmxqtx11/MtOSMLQ/UAPAnixY4Pu3telGSUdm9P3wwnLZ3s4jDWB3Bgc9v2GDPi/ptdRoKbdWq+pZs8Y2kAJpxyWESK1587yrWtW3xXjVqn4SRTqS8QpALdautXu6urTEXWNZ+7O569JyWWfxKAPYk6Ehq4ahXi/pM9RoKYfmcvqa5Bz7I/V4EiO1Ojr0GfGtKq3qh52dGuA3SQAmY3jY7ps5U4slXZuhP9a3587VGZI5jzCAvTMPQztb0jm0aKFH3bS4UNA7KYHUP5dJgDQKAj9JEjfsbkHuGqtUdOxNN9lmagCYisFB77jzTl1hppem/I9yraSTwtAqPKoAJmvXDb4/a8ZJDS1iwkwLSyX7ASmQVgxYSJ2BAT+8UtGPJe1LjdbirhvHx3XSunW2jRoApmNw0PN33qlLzXR6Sv8IK7q6dPzwsO3g0QQwVYWCv8pMX5aUp0ZL+MPEhJ7LL4KRVqztSJWeHm+vVPQ1MV61HHddN3OmTmC8AlAPQ0NWLZf1Onedn8L3w+93dOhExisA01Uu2xVmeoUkzuRsDU9ob9dFZEBaMWAhVWbP1nmS5lGitbjr62YcrAGoN/Ny2d6pdN0L5qdmOmblSrufxw9APZRK9i0znSJGrFZxWhD4KWRAKj+5kQBpUSj4UjPdwPO2tez6dq03SxZRA0CjBIG/RdKFCf8Z84t8XsWREbuLRwxAA94HT5L0dUnt1Mi8LVGk546N2S2kQJpwBhbS8gP10Wa6XIxXLcVd55fLehPjFYBGC0P7rKQ3SKom9B/xd/m8FjFeAWjg++C33TkTq0XMyuV0eU+PM1YiVRiwkAKec9dXJR1Ii9Zhpgt2XtrDV8MDaNrB2xclnSJpImH/aLfmcloyMmJ38CgBaKRy2YbMdHIC3wdRf0fOmqWPkAFpwoCFxCsU9H4z9VGipXy6VLJ3kAFAs4WhfdNML5GUiC+McNc/cjkVR0ftrzw6AJqhVLKr3fUyMWK1gnMKBS+SAWnB5VhItGLRe9y1TlyL3zpvSqYLGK8AxK2vz3urVS030+wY/zE2mikolexXPCIAYvgcfrS7rpHUSY1M+7ukZ4ehbSQFko4zsJBYy5b5THddKcarlsF4BSApRkdtLJdTn6S4PtBvMtNRjFcA4lIq2Y3ueomk7dTItEftvF2Lc3ILEo8BC4m1ebPOl3QEJVoD4xWABB68rY8i9Wrnb6ebxl1b3bWsVLL1PAoA4lQu27DEiNUCn8OPLhT0Jkog8c9VEiCJikU/xl3LeY62hp3fNmjvpASAJAoCf4KkVZIe24S/3fZcTseMjtoo5QEk6bN5FOkaM3VQI7O2SXpBGNovSYGkYhxA4ixc6HPyef1C0kHUaIE3Ic68ApACQeCP1s4R68kN/NtMSDohDO16igNImkLBB810laQ8NTLrl5KeH4bGGXdIJC4hROLk8/qCGK9agpkuYrwCkAZhaLd1dKgg6ScN+ltU3XUK4xWApCqXbchdr5fk1Misp0v6GBmQ2ONHEiBJCgV/vZkupUT2uevyclmvkSyiBoC0GBjwfSsV3SBpfj3fEiW9IQztixQGkHRB4G+RdBElMvsZPcrnVRwdtTFqIGk4AwtJOig43EyfpkRL/GC8xkyvZbwCkDarV9um7m4tlrSiXn9NM72L8QpAWoShfdZMH6ZENpkpV63qy0Hgs6iBpGHAQiIEgbdVKrpSUjc1ss1dK2fO1CvC0CrUAJBGy5fb1jlzdJykb9fhL/e+UsnOpyqANCmV7D/c9QlKZJOZDnfXxymBpGHAQiK4632SjqRE9j/vjI/rxcPDtoMUANJsaMjGJb3cTFdM4y/zn2Fo51ITQBqVyzrHnVt/ZNhbgsADMiBJuAcWYtff78+sVPRDvpY3834wMaFFN91km0kBIDvcgkDnSzprUh/Adn6JxdvoByDl74G5QkFXmOkVtMikv0xM6Jl8fkdScAYWYhUE3lat6kuMVxn/aOP6eWenjuaHH4DsMQ9DO1vSOZP4L32lVNLbaQcgA++B0dy5OlX1uaQayfPYjg6dRwYkBQMWYrXr0sEeSmTabzs7tWjFCrubFACyKgztPO0csXwvP/e+HoZ6rWR8DT2ATBgasqqkV0kaoUYmj9feFAQ+QAkkAQMWYtPf78+U9AFKZNrfczkdtXKl3UkKAFm3a8Q6w127+4bVa7ds0av5BlYAGXz/297dreMkraVG5pikryxY4PuTAnFjwEIsdl06eBmXDmbaJjMdMzpqfyUFgBY6iPtfSa+UNPFv/6/Vkk5ev94mqAQgi5Yvt61tbTpW0i+okTmPamvTJ8mAuDFgIRa7Lh18HiUya5ukY0sl+xkpALSactmuknSCpO27/k/rJL0kDG07dQBk2erVtknS0ZJuo0bmvLZY9KPJgDjxLYRout5ef4aZfsTZV5lVMdOJpZJdRwoArWzXPUPe39Wl44eH7T6KAGihz/vPyeVUltRNjUz5e6WiZ6xda/eQAnFgwEKzP8y3Sfq+pOdTI5Nc0uvD0C4jBQAAQOvq6/O+alXD/NI6W8x0Ralkp1ICceASQjTbe8V4lVnuej/jFQAAAEZHbTSX02u0l29nReo+77+qWPQTKIE4cAYWmqZY9Ke5a72kTmpk8M3EdFGpZG+jBAAAAB5wDPAhd32UEpnyz0pFT+VSQjQbZ2ChKQYHPR9F+pIYr7Lqm6WSziIDAAAAHqhUsv+Q9EVKZMoj83mdSwY0GwMWmmLjRp1pphdQIpPWdnXpNMkiUgAAAODfzZmjN0m6lhKZ8rog8AVkQDNxCSEabtEiP2RiQr+WtC81ssVdf4oiHblmjW2gBgAAAHZn2TKfuXmzRiQdSY3M+NWcOXru0JCNkwLNwBlYaLiJCV0sxqvMcdfdbW1ayngFAACAvVm+3LZKWibpFmpkxtM2btS7yIBm4QwsNFSh4C8x0zWUyJwd7lpULtsaUgAAAKBW/f3+pGpV35f0CGpkwjZJzwxD+wMp0GicgYWGmT/fu810ISUyx931esYrAAAATNbIiP1e0ovdxWVn2dAl6QuSc3IMGo4BCw3T3q7/kvRoSmSLuz5cLtsVlAAAAMBUhKGtlfQmSmRGEAR6BRnQaKykaIhCwZ9vpnWS8tTIlG+EoV4hmZMCAAAA01Es+oXueislMmGjpKeEoW0kBRqFM7BQd0HgbWb6ghivsiacM0enMV4BAACgHtz1DkmrKJEJB0o6lwxoJAYs1J2Z3iHpWZTIlL9IGuQrcgEAAFAvYWiVSkUvc9fvqZEJp/f1eR8Z0ChcQoi66uvzw6JIv5K0DzUyY4ukeWFovyQFAAAA6q1Y9CPc9X+S9qNGurnr9zNn6pnDw7aDGqg3zsBCXUWRLhbjVZZ+AEVmeiXjFQAAABqlVLLfmelkSVVqpJuZnrR1q95DCTQCAxbqplj04yQdQ4kMvUHk9MFSya6lBAAAABqpVLIV7no3JdLPTO8PAn8yJVD341MSoB7mzfOuKNIFlMiUq0sl/TcZAAAA0Azlsl3grkspkXqdkv5Xcm5ZhLpiwEJ93qE69V4zHU6JbHDXj7u7dSrfOAgAAIBmmjtXb5W0lhKpVygW9XIyoJ5YRDFtAwP+mIkJ/cZMM6mRCXdEkZ4/Nma3kgIAAADN1t/vj6hUdDO/IE+9v0t6chjaFlKgHjgDC9M2MaGLGK+ywV3jZjqR8QoAAABxGRmxu9x1kqTt1Ei1R0k6hwyoFwYsTEux6MeY6ThKZIOZ3lYq2U2UAAAAQJzGxuwnkt5CidR7Z2+vP44MqAcGLEzZ0qXeGUU6nxKZcWUY2ufJAAAAgCQIQ7vMXV+iRKrNMNOnyIB6YMDClG3dqveY6UmUSD93/by7W2+gBAAAAJLETGdKWk+JVD+GJ/T1+WJKYNrPJRJgKgYG/DGVin4taR9qpN69uZyeNzpqfyQFAAAAkqavzw+LIq2X9AhqpJO7fr1li569fr1NUANTxRlYmJJKRf8jxqts/Cxxnc54BQAAgKQaHbW/Snq1uyJqpJOZntrdrTdSAtPBgIVJCwIfkPRiSmTCf5XL9h0yAAAAIMnC0K7P5XQeJdLLXR/t73fOosOUMWBhUgYHPe+uT1MiEz9ARufM0YcpAQAAgDQolfQBd62kRDqZ6YAo0scogaliwMKk3HmnTjfTMymRerdGkU4eGrIqKQAAAJAOFnV26lWSbqNFOrnrDcWiP4sSmAoGLNRs/nzvNtN/UCL1Jsw0uGaNbSAFAAAA0mTlSrszl9PLJHEz8HTKu+szZMBUMGChZm1tOkfSIymReu8rlewHZAAAAEAajY7a9yW9hxKpFRQKPkgGTJaRALUYGPDHVCr6raQuaqTaDWGoZZI5KQAAAJBmQeBDkk6iRCr9dccOPWXdOttGCtSKM7BQk2pV54rxKu3+LunVjFcAAADIiNdL+gsZUumwzk7OosPkcAYW9qpY9Be6ax3Pl1Srmqm/VLIyKQAAAJAVQeALJIWS8tRIF3dtzef1pNFR+zs1UAvOwEItbyyfEuNVqpnpPxivAAAAkDVhaGsl/SclUnmMMtNdH6YEasWAhT0KAn+ZpAWUSLXygQfq42QAAABAFoWh/kM7z8JCyrjr9P5+fyolUAsGLOzW4KB3SAwfKbehvV2vGBqyKikAAACQTRZFkU511920SJ18paKPkQG1YMDCbm3YoLdJejwlUsslnbpqlf2DFAAAAMiysTG71UxnUCJ9zPSSIPAjKYG9YcDCwxoY8H0lnUOJ9HLXBWFo36MEAAAAWkEY2jfN9GVKpI5J+gQZsDcMWHhYExN6j6RHUCKd3PXr8XF9gBIAAABoJe3tequk31EidRYWi34MGbAnfLMcHvrOsdAPzud1i6R9qJFKO8z0wlLJfkYKAAAAtJq+Pn9utap1ZuqgRqr8Ys4cPYf792J3OAMLD9HWpg+K8SrN3s94BQAAgFY1Omo/lrgaIYWesXGjTiEDdoczsPAgvb3+ODP9lt9WpNaaMFQgWUQKAAAAtC63QkHXm+loWqTKX7u6dMTwsO0gBf4dZ2DhQfJ5fZzxKrXujSKdwngFAAAAmHd06PXuupsWqXLY1q18myR286omAf6lv9+fWanoJ2YMm2nkrleUy3YVJQAAAICdgsBPkfQ1SqTKPZWKHr92rd1DCjwQQwX+n2pV5zFepdaVjFcAAADAg4WhXSnpakqkyv5tbXonGfDvGCsgSSoWvSDpKEqk0m2S3kIGAAAA4KHyeZ0paSMl0sNdZy9c6AdTAg/EgAVJUhTpv6iQ2jf3N4Sh3UsJAAAA4KFGRuwO8QvfVDHTzHxeH6YEHvS8IAGKRT/OXddSIn3c9aVy2V5LCQAAAGCvxz3fctcgJVKjEkV66tiY3UIKSJyBBbm564N0SOEj5/pHtap3UQIAAACo6fPzGZLuoERqtJnpA2TAvzBgtbgg0PGSnkeJVHod38wBAAAA1CYMbaOZ3kCJ9DDTKf39/iRKQGLAanFukt5PhxQ+cjsvHRymBAAAAFC7Usmuc9fXKZEa+WpV7yMDJAaslsbZV+nEpYMAAADA1JnpTEl/p0RqvIqzsCAxYLUwzr5K7Ys2pzO4dBAAAACYml3f4P0mSqRGPop0DhnAgNWiOPsqncz05VLJ+MZIAAAAYBrC0K531+WUSAd3ndrb60+kRGtjwGrNl79J+hAdUud2d72DDAAAAMD0Vas6S3wrYVrkczm9lwytjQGrBe06++o5lEgXd7191+nOAAAAAKZp7Vq7x4xfEKfIqb29/jgytC4GrJbDva9SarhctiEyAAAAAPVTKtnXJd1AiVRoz+f5RsJWxoDVYrj3Vfq4a2sU6UxKAAAAAA3xFkn3kyEVx0av5iys1sWA1Vovd86+SuOLNKcPjo3ZnykBAAAA1F8Y2l/M9F+USIV27oXVwsfGJGgdQaBjxNlXqeKuH7vrQkoAAAAAjXPfffqkpF9SIhXHSK/p6/PDKNF6GLBayzkkSJVqLqc3hKFVSAEAAAA0zvr1NmGm17krokaymakjiji2bUUMWC2ir897Jc2nRKremC8slWw9JQAAAIDGK5XsB2b6AiVS4bWchdV6GLBaRLXKdcJp4q6/uetDlAAAAACap61N73XXPyiReO3Vqt5DhtZiJMi+YtGf5a6f8Hin6IVpOr5UsusoAQAAADRXEPjJkq6iROLtqFb1uDVr7HZStAbOwGoN7xXjVWq4ayXjFQAAABCPMLRvSLqeEonX2damt5KhdTBgZdzAgB/urkFKpIO7xnkTBgAAAGI+UM7pLZLup0Tij5/eNH++d1OiRV6XJMi2SkXvltRGiXQw0ydGRuz3lAAAAADiMzpqfzXTf1Ei8fZvb9fpZGgNDFgZ1t/vB0k6jRKpcWtHh84lAwAAABC/Aw/UpyTdQonEe2dPj7eTIfsYsDKsWtXZkrookQ7uevvKlcZpygAAAEACDA3ZuMQ33aXAobNm6SQyZB8DVkYtXeqzJb2REqmxuly275ABAAAASI4wtO9KWkGJZDPTeyXni8syjgEro7Zt0xmS9qNE8rlr3ExvoQQAAACQPPm83iGpQolEe1Zfn4pkyDYGrAzadf3vmZRIBzOdXyrZ7ygBAAAAJM/IiP3aXZ+jRLJFkd5NhWxjwMqg7m69TNKjKZEKf+/o0H+SAQAAAEiualUfkbSREom2pLfXn0GG7GLAyqa3kSA13s+N2wEAAIBkW7vW7pH0AUokmuVyeicZMvwAkyBbikUvuCukRCr8NAzVI1lECgAAACDpPBcE+oGk59EisSaiSI8fG7NbSZE9nIGVtbdU19lUSAczvYvxCgAAAEjNJ/jITGdJclokVjtfkJXhVyAJsqO31x+Xy+kWSXlqJN53wtBOIAMAAACQLkHg35D0Mkokk7vua2/XY1avtk3UyBbOwMqQXb8NYLxKvol8XueQAQAAAEild0niPrbJPS6eXanodZTIHgasjBgY8H3N9BpKpMLFIyP2ezIAAAAA6ROGdpukT1Ii0d7e0+PtZMgWBqyM2LUwd1Mi8e7J5/WfZAAAAADSq6NDn5J0OyUS69DubnHLloxhwMqAwUHPSzqTEqnw0ZERu4sMAAAAQHqtXGn3u+tjlEg0jpEzhgErAzZs0EskPY4SiXfLnDm6hAwAAABA+m3Zoi9KuoUSibWwt9efQYbsYMDKhreTIBU+ODRk42QAAAAA0m/9eptw1/spkVy5nM6gQnYYCdKtv9+fWa3qZ5RIvJ+FoZ4rWUQKAAAAICvcgkDfl3QkLRJpS1ubHr16tW0iRfpxBlbKVassyql4oeX0HsYrAAAAIGvMzXQOHRJr1sSETiVDRo6rSZBe8+d7t7teTolkc9fY6KitpAQAAACQPaWSlSV9jxLJZKYzJOfqswxgwEqx9nadaqbZlEg8fiMDAAAAZFg+r/e6iysukunJfX0qkiH9GLDS7Y0kSLzvlMu2jgwAAABAdo2M2M/NdBUlkqla1ZlUSD8GrJTq6/NeSXwlaMLfJ830QTIAAAAALeEDknaQIXnMdFwQ+KMpkW4MWCkVRXozFRL/Jnl5qWS/ogQAAACQfWFof5H0v5RIpDYzvYEM6caAlUKLF/tcd51AiUTbYaaPkgEAAABoHdWqPu6u+yiRPO56/eCgd1AivRiwUmjHDr3WTLzwku2Lo6P2VzIAAAAArWPNGttgpvMpkUiP3LCBE0HSjAErdTzHqY+Jt0PSuWQAAAAAWk9bmz4j6R5KJNIZJEgvBqyUKRR0jKTHUiLRvhiGdhsZAAAAgNazerVtctdFlEikhf39/kwypBMDVsqY6Y1USLQdUaTzyAAAAAC0rmpVn5G0iRKJfGw4CyulGLBSZNEiP0TSUZRILjN9aWzMbqUEAAAA0LrWrrV7zHQhJRLpFYsX+z5kSB8GrBQZH9dpkvKUSCZ3jZtx9hUAAAAAyV3nS7qXEonTPT6uk8iQPgxYKWKmU6mQ4BdTTpfxzYMAAAAAJCkM7V5JF1MikV5NghQec5MgHQoFXyjpyZRIrAl3fYIMAAAAAP6ls1PnS9pMieQdYvf1+ePJkC4MWGl5oHJ6DRWSy0xfDEP7CyUAAAAA/MuKFXa3mT5LieQdwlWrXOGUNgxYKRAEPstdg5RIrAnufQUAAADgYQ+6c/q0OAsrccx0muRsIml6LZEgFV4maRYZEutK7n0FAAAA4OGMjNhd4l5YSXRYsagiGdKDASsduHwwudxMnyIDAAAAgN3J5/UpcRZW8g7mnJu5pwkDVsL19/uTJL2IEol1balkvyIDAAAAgN0ZGbG73HUJJRLnxCDw/ciQDgxYCVet6nRJRonE4t5XAAAAAPaqs1OflrSNEonSZaaXkiEdGLASLAi8zV2vokRihWFo/0cGAAAAAHuzcqXdKelySiQLlxGmBwNWgplpiZkOoURicfYVAAAAgJpFkT7trogSiTIvCPzJZEg+BqwEc9crqZBYPwtDrSADAAAAgFqNjdktZrqWEolzGgmSjwEroRYv9n0kLaNEYp0rmZMBAAAAwKQOwnM6lwrJ4q5TBwc9T4mEv3ZIkEwTEzpR0j6USOSb258kfZsSAAAAACZrdNRulnQTJZLDTIfceacWUyLZGLASKop0ChUS++Z2fhhahRIAAAAApnhM8UkqJEsup9dQIeGvGxIkT3+/H1St6jZJbdRInHslHRqGtoUUAAAAAKbGc0GgX0s6ghaJsaNS0cFr19o9pEgmzsBKoGpVJ4vxKpHM9AXGKwAAAADTPLKI3PVpOiRKZz6vF5MhuRiwkonLB5OpWq3qEjIAAAAAmK6ZM3W5pNspkRxmehkVkosBK2GCwJ8g6XmUSOSb2TVjY/ZnSgAAAACYruFh2yHpYkokSv/ixT6XDMnEgJU8rxT3Jkuq/yEBAAAAgHqpVPQ5SdyiJDnaxsf1EjIkEwNWwrjr5VRIpPWlkvFVtwAAAADqZu1au8ddX6JEonAZYUIxYCVIX5+/wExPokQiXUACAAAAAPXW3q7/cVdEicToXbjQDyZD8jBgJUgU6RVUSB53/WPOHA1RAgAAAEC9rV5tfzLTMCUSI5/L6SQyJA8DVmJ4TuJFkkRm+tzQkI1TAgAAAECjjjmokKjHg8sIE4gBKyGKRc2T9ChKJIu7xvN5fZESAAAAABqlVNKwu35PicR4UV+fH0aGZGHASo4TSZA8ZrpmZMTuoAQAAACABh55uJkupUNyHpAo4gqppGHASgQ3d51AhwS+a5n+lwoAAAAAmuAyd20lQ2JwGWHCMGAlQLGoF0ji9MTk+U2ppDEyAAAAAGi0MLR7JX2DEonx/CDwJ5AhORiwkoHLBxPIXZdI5pQAAAAA0AxmuogKicJlhAnCgJUAXD6YSNuqVX2NDAAAAACaJQztp5L+jxKJwWWECcKAFbNi0XskPZ4SifP1tWvtHjIAAAAAaLKLSZAYz+7t9aeQIRkYsGIWRZx9lVDcvB0AAABA03V1aUjSBkokQz6vQSokAwNWzMy4/1UC/TAM7UdkAAAAANBsw8O2w0xfpEQyuOslVEgGBqwY9fb6MyQdQYnE+TwJAAAAAMTFTJ+XVKVEIjxrYMAfQ4b4MWDF+6bENxokz/0TE/oWGQAAAADEZXTU/irpRkok49C9UtEyMsSPASvOV4FxKmICDd10k20mAwAAAICYfYkEicGAlQAMWDHp6/PDJD2DEgl7QeT0ZSoAAAAASIDrJf2TDPFzV3HpUp9NiZiP10kQj2pVx1Ehcf48Oqo1ZAAAAAAQtzC0ipmuokT8zNSxdauWUCJeDFjxvQA4BTF5viSZkwEAAABAErhzGWFS5HIcw8f+GJCg+YLAZ0nqpUSifjBEbW26nBIAAAAAkiIM7ZeSfkSJ+EWRjgkCb6NEfBiw4nGUpE4yJMrq1avtb2QAAAAAkCRm3Kc3IY/DAWaaT4n4MGDFwJ1TD/mhAAAAAAB7l8/rSknbKMGxfKtjwGqywUHPm+loSiTKph07dC0ZAAAAACTN6tW2SdJ1lEiEF5MgPgxYTbZxo46UdCAlEuWqdeuM32gAAAAASOaBe46buSfE44PAn0yGmF4HJGguTjlMpCtJAAAAACCpRke12l3cszcBzHQcFeLBgNVkDFiJezz+Foa6iRIAAAAAkssiM11BB47pWxkDVhMNDPjhZnoqJRL0AsjpSsmcEgAAAACSLIp0mSSOXWLmrhf19/tBlIjh+J0EzVOt6lgqJO4xuYoKAAAAAJJubMz+7K41lIiXmXLVqo6iRPMxYDWRuxZTIVF+MTZmvyADAAAAgDQw09epkAhcRhgDBqwmGRz0DkkFSiQKb/4AAAAA0uRqSRNkiF3/4KDnydBcDFhNctddWiBpFiUSwyV9gwwAAAAA0iIMbaOkEUrEbr+77lIPGZqLAatJokiLqJAoN4Wh/YUMAAAAAFLmmyTgGL8VMWA1zxISJIc7lw8CAAAASJ+uLl0jaTslYseA1WQMWE2weLHPddezKJEYlSjSt8kAAAAAIG2Gh+0+SSsoES93zQsC5zZBTcSA1QTj41pkRusECdessQ1kAAAAAJBG7lxGGDczdZiplxLNw6jSHJxamCxXkwAAAABAWs2erWsl3U+J2A2QoHkYsBrOzZ0BKzGPhiuqVnUtJQAAAACk1fLltlXS9ZSI/fiSY/0mYsBqsN5ePd1Mh1AiGcx005o1djslAAAAAKQZlxEmwtMWLvSDydAcDFiNDpzj2wcThssHAQAAAKSemYYlbaJEvA9DLsdlhM3CgNVgnFKYrIejrU3fIQMAAACAtAtD2+7O7VESgAGrSRiwGmhw0DskLaBEMrjrh6tX298oAQAAACATB/Q5LiOMm5kWS26UaMLznQSNs2GDXmCmmZRIzBvLNVQAAAAAkBX33adVku6lRKweGQR6GhkajwGrgdxVpEJy5PNcPggAAAAgO9avtwl33UiJ2HEZYRMwYDWQmXqpkAzu+vnIiP2eEgAAAAAydtx5HRViP97k3tdNwIDVILvufzWPEgl5oue4uSEAAACA7Onq0rC7xikRHzMVli71Tko0+LieBI2xcaOeL2kfSiQDp9UCAAAAyKLhYbvPTGVKxGqfrVv1AjI0FgNWg3D/q0Q9FneGoW6mBAAAAICM4jLC+C0gQWMxYDVOgQQJeZLndINkESUAAAAAZFFbm66T5JSIj5nmU6HBx/YkqL+eHm8X979KkhtIAAAAACCrVq+2v0n6KSViNV9yNpYGIm4DzJ6tF4j7XyWCu8bHx7WSEgAAAAAyjssI47VfEOipZGgcBqwGcFdAhWQwU/mmm2wzJQAAAABk+uA+x4CVANwHq5HPcRI0BPe/SggzXU8FAAAAAFk3Omo/lvQXSsSK+2A1EANWne26/9WLKJEMZtz/CgAAAEDL4PgnXgxYDcSAVWfd3XqWuP9VUvxmdNT+SAYAAAAALXGAz2WEcXtcX58/igwNen6ToL7MOPsqQY/F96gAAAAAoFVs2qSSpHspER93zsJqFAas+juSBMkQRVpFBQAAAACtYv16m5BUokSsx6EMWA3CgFVn7ppHhUQ8DuNmWkMJAAAAAC12LMQv8uPFNxE2CANWHfX3+0GSHkuJ+Jnp+2FoWygBAAAAoMWOhRiw4u3/rPnzvZsS9ceAVUeVCve/4k0bAAAAAOIThvYHd/2JErHJt7Vxa6FGYMCqZ8wclw8mBfe/AgAAANCq+IV+7P25D1YDMGDVEfe/Sox75s7Vj8kAAAAAoBUxYMWOAasBGLDqpKfH2931XEokwsjQkFXJAAAAAKAVuWtEEsdE8ZkXBN5GhvpiwKqT7m49y0wzKZEIq0kAAAAAoFWFod0r6UeUiM0+UaRnkKG+GLDqxIwbuCdFWxunywIAAABoeRwXxSiXUw8V6tyUBHXDtwwkw59Xrza+cQMAAABAax/s5xiw4mTGLYbq/pwmQX24M2AlRJkEAAAAAFrdpk1aJ2kzJeIRRZyBVW8MWHWwZIkfIOmxlIifu8aoAAAAAKDVrV9vE+IX/LEx0zN7erydEvXDgFUH27erR5JRIn7t7bxBAwAAAIAkmXEZYYxmzJ6tp5Khfhiw6hExp+dQIRFu4/5XAAAAALCTu1ZSIVZcRlhHDFh1wLWtiXlz5vJBAAAAANglDO23kv5JidiOUbmRex0xYNWBGQNWQh4HBiwAAAAAeAB3fZ8KsWErqCMGrGkaGPB9JR1OiUTg/lcAAAAA8GBrSRCbZ3Mj9/phwJqmiQk9V9zAPQk2hKF+RwYAAAAAeBAGrPjM2GcfPZkM9cGANU1mXNOaEGXJnAwAAAAA8KBj1p9I2kyJeORyXEZYt5YkmDa+gTABuIE7AAAAADxUGFpF0g8oEQ9OeqkfBqzpex4JEvBEznFjQgAAAADYjZtIEI8o4gysuh33k2DqgsBnueuJlIjd9vvu08/JAAAAAAAPi/tgxefZQeBtZJg+BqxpcNdzzGiYAD9av94myAAAAAAAD9XRoXWSOGaKgZlmmukISkwf48v0PJsE8XPXzVQAAAAAgIe3cqXdL+mnlIgNlxHWAQPWdOLl9AwqJOJx4IaEAAAAALAH7lpDhdja8+Vv9Tj2J8G0noRPp0L8qlWtowIAAAAA7OHgP8eN3OPirqdSoQ7PYRJM+SloEk/CBLh9bMxuJQMAAAAA7F6lojWSnBLNZ8Z2UA8MWFM0MKBDJe1Lidhx+SAAAAAA7MWaNbbBXbdQIhaPHhhw9oNpYsCaomqV+18lxP+RAAAAAAD2zowvwIpLpaKnUGF6GLCmiPtfJeYNmAELAAAAAGqzngSxHbtyGeE0MWBN/cn3NCrEy13R+Lh+TAkAAAAAqMmPSBDb8SsD1jQxYE39yccZWDEz0y033WSbKQEAAAAANfmppCoZms+dSwiniwFrCgYHPS/pyZSIlxlnXwEAAABArcLQtrjrd5SI5fiVM7CmiQFrCjZu1BMkdVEiXlGkn1ABAAAAACYxAuS4D1ZMDgsCn0WGaTx3STAlXD6YAGYMWAAAAAAwGe4MWHEdwooruaaFAWtqL3gGrGT4KQkAAAAAoHZm3Mg9xvZcRjgNDFhTw83X4ndbGNpGMgAAAABA7drbuZF7XPgmwulhwJqaI0gQ+wufG7gDAAAAwCStXGn3S/otJWI5juVkmGlgwJr8U84kPZ4O8eL+VwAAAAAwZVxGGM9xLGdgTQMD1iQtWqSDJXVTIvYXPgMWAAAAAEwBN3KPrfvh8+Z5FyWmhgFrkioVPZEK8TPjBu4AAAAAMBX5PANWTMexuc5Obkk0VQxYkxRFehIV4uWu+0ZH9TdKAAAAAMDk7bMPN3KP8XiW+2BNEQPWZIPlOAMrbmb6lWROCQAAAACYvOXLbau7/kiJWI5nuaf2FDFgTZI7Z2AlwK9JAAAAAABTt/PEADSbux5HhalhwJr8k40zsOL3GxIAAAAAwLRwYkAMzBiwpooBa1I8Z6bD6RDzo+C80QIAAADANI+rOAMrHmwKU8SANQm9vTpM0gxKxKu9nTdaAAAAAJjWGJDjxICYPLqnx9vJMIXnLAlq19bG5YMJsGX1at1KBgAAAACYuhkz9FtJFUo0XX7//XUoGSaPAWsSoogbuMdt5+WDfAMhAAAAAEzH8LDtcNefKNF8lQqXEU4FA9YkcAP3+JlxA3cAAAAAqNPxFbdniQHfRDg1DFiTe3Gzksb/GHCdNgAAAADUB8dXMcjlGLCm1I0EtXPXY6gQ+2PAGywAAAAA1Of4ijOw4unOyTFTwIA1CWY6jArxiiL9jgoAAAAAMH18E2E8uIRwis9XEtRm6VKfLWlfSsSqcv/9+gsZAAAAAGD6+CbCeJgxYE0FA1aNxsf1WCrEy11/Wr/eJigBAAAAANPHNxHGZk4Q+CwyTA4DVo0qFS4fjJuZbqECAAAAANT1OIvLCGMQRZyFNVkMWLW/qLmBe/yPwe+pAAAAAAB1xX2GY5DPM2BNFgNWjbiBe/yiiDOwAAAAAKDO/kyC5uNG7pPHgFWjKGLAihuXEAIAAABAfXEPrNgwYE0SA1aNuIQwAU/WHAMWAAAAANRTe7v+SIVYsDFMEgNW7TgDK17bRkd1KxkAAAAAoH4qFf1NUoUSTfdIEkwOA1YNli71TncdRIlY/UGyiAwAAAAAUD9haBWJkwVicDAJJocBqwbbtulQM1rF7A8kAAAAAICG4DLC5uMMrElilKmBuw6lQuyPAd+MAQAAAAANYMbxVgxmBIHvR4baMWDV9mI+hAoxP1Fz+isVAAAAAKD+oogBK6buXEY4CQxYteHUvvgxYAEAAABAA5jpT1SIpTtbwyQwYNX2pOIG7jGrVvU3KgAAAABAQ3APrBjkcpyBNaleJKgJq2jMuro4AwsAAAAAGqGzkzOwYsLWMAkMWDVwZxWN2ZYVK+xuMgAAAABA/e063rqXEk3HgDUJDFg8qdKAs68AAAAAoIHcOQsrBmwNk8CAVRvugRXvGykDFgAAAAA01l9I0PRjXa72mgQGrL3o6fF2dz2CEjE+SXMMWAAAAADQSGa6nQpNxxlYk9BGgj3r7tZBYuiLlTvfQAgAAAAADcaA1XycgTUJDDN7Ycblgwl4DBiwAAAAAKCxx10MWM13wOCgd5ChNgxYexFFOoQKsfs7CQAAAACgoce+DFjNZ3fcwUkztWLA2juuSY3fP0kAAAAAAI2Ty+kfVGi+tjYuI6z5OUqCPTPTXCrEy113UAEAAAAAGieX48SBOFSrnIFV83OUBHt1IAlitS0M7V4yAAAAAEDjjIxog6QJSjRXLqf9qVBjKxLsmbsOoEKs/bkOGwAAAAAaziJJd9Kh6fYjQW0YsPb2EjbW0JhxGisAAAAANAcnEDTffiSoDQPW3nEGVrwYsAAAAACgCdy5kXuzRZH2pUJtGLD2/gLmDKx4MWABAAAAQBOYcQZWDPYjQW0YsPb+AuYMrHgxYAEAAABAczBgNd9+JKgNAxZPpqRjwAIAAACAJuAMrFjsR4LaMGDtwbx53iVpBiVifILmdAcVAAAAAKApOIGg+fYjQW0YsPagq4vLB+Nmpo1UAAAAAICmuIsETbcfCWrDgLUHlQoDVtyiSHdTAQAAAACa4l4SNN1+JKgNA9YetLXxDYRxy+d1DxUAAAAAoCnHwBx/NZmZ9pXcKLF3DFh7EEWcgRW3Aw7gDRQAAAAAmmHLFo6/YpCfP1+zyLB3DFh74M4ZWHG/fw4N2TgZAAAAAKDx1q2zbZJ2UKK58nkuI6wFA9YemGk2FWJ1LwkAAAAAoKk4C6v59iPB3jFg7YGZ9qFCrPgGDAAAAABorntJ0FxmDFi1YMDagyhiwIoZyz8AAAAAcByWdfuRYO8YsPaAM7Di5a67qQAAAAAATXUvCZpuPxLsHQPWnjFg8cYJAAAAAC3DnTOwmo2TZ2rDgMWTKMn9eeMEAAAAgOa6lwRNN4MEe8eAtQfcAyt2m0kAAAAAAM3DiQSxNO+gwt4xYO35ScSAFa8tJAAAAACAprqXBM0VReqkwt4xYO0ZA1a87icBAAAAADQVZ2A1mRkDVi0YsPaMAStG7gxYAAAAANBMZtzKJQbcA6sGDFh74M6AFeuTM8eABQAAAABNtoMETccZWDVgwNqzWSSIjxn3wAIAAACAJttOgqYf+zJg1YABa89PIs7AihGXEAIAAABA0zFgNRk3ca8NA9aecR1qjBiwAAAAAKDpGLCaj+2hBgxYu+U5SXk6xIpLCAEAAACguRiwmsxMHVTYOwas3Vi6VO1UiFe1yhlYAAAAANBkDFjNxxlYNWDA2o1qVW1UiFdnp7ZSAQAAAACax4wBK47DXxLsHQPWboyPcwZW3O6/X+NUAAAAAIDmYcBqPncGrFowYO0eZ2DFbHxcFSoAAAAAQPMwYMXSnAGrBgxYu1GtcgZW3NavZ8ACAAAAgGaqVLSDCk3HgFUDBqzdMOMMrLjfNyVzMgAAAABA84ShdkjiWKy5GLBqwIC1ewxY8eLsKwAAAABoOnPxTYRNxT2wasOAtRvt7VxCGLMJEgAAAABALLiMsInM2GZqQaTd4wyseHEGFgAAAADEgzOwmstIsHcMWLsRRZyBFSd3zsACAAAAALTE8S8DVg0YsHaPM7DixRlYAAAAABAPBhUkDgPW7jFgxfluaZyBBQAAAABoieNfBsMaMGDt/gnE14bGyF1VKgAAAAAAWgADVg0YsHajWmXAAgAAAAC0JLYC8KRMTZicIirEh68RBQAAAID4DslIQO+kYSTYDS5hi12eBAAAAAAQzyExCZoYm28hrAkD1m5wD6z4HwISAAAAAEAs2Aqaq0ICnpRTVq1yCWHMGLAAAAAAANk/+DWuAKsFA9Zu5PMMWDw3AQAAAKD1cElb03EGVg0YCXaDM7B4bgIAAABAKzJjwGoyzsCqASPBbnAGFs9NAAAAAACagDOwasBIsBucgRU7Fn8AAAAA4HisFXAGVg0YsHajrY0BK07uPDcBAAAAAC2BM7BqwEiwG1HEAhqzNhIAAAAAAMdjWefO/lALBqzdvVo5AytuM0gAAAAAALHoIkFTcQZWDRiwdvfsqWicCvExU8fgoOcpAQAAAADNs3Spd0riWKy5tpNg7xiweAIl9wHYrk4qAAAAAEDzbN6smVRo/uEvCfaOAWs3urq0jQrx2rqV01YBAAAAoMnHwhyHNR8DVg0YsHZjeNh2uHMfrDi5cx8sAAAAAGimiQnOwIoBA1YNGLD2wEw7qBCfKGL5BwAAAACOwzKPAasGDFh74M5lhDHjDCwAAAAAaKJ8njOwYsCAVQMGrD0wY8CKkzvLPwAAAABwHJZ5DFg1YMDiSZRknIEFAAAAAE1kxhlYMWB7qAED1p5xBlaM8nmWfwAAAABoMo7Dmoyrv2rDgLVnPIliVK1qHyoAAAAAQPNwCWEstpBg7xiw9ozT+GJkptlUAAAAAICmHodxCWHzMWDVgAFrzxiw4n3j3JcKAAAAANA87gxYMWDAqgED1p5tJUF8oogBCwAAAACaiUsIY8GAVQMGrD2/cO+nQny4hBAAAAAAmiuX0/5UaPqx72Yq1PDcJMEeX7ibqBDri5gzsAAAAACgidx1ABWajjOwasCAtecXLgNWvP05AwsAAAAAmosBq/kYsGrAgLUH7rqPCrHiDCwAAAAAaC4GrCbL57mEsBYMWHuKwyWEcWPAAgAAAIAmcuceWM22fTsDVi0YsPb8wmXAirc/AxYAAAAANJGZHkGFph73RmvXsj3UggFrz3gSxfvGyYAFAAAAAE3EGVhNP+69T7KIEnvHgLXnFy4DVrxY/gEAAACgSYLAZ5hpJiWax/3/a+/Oo+Mq6P6Pf7530nShLUs3ZJMf6MOmKFTUQpvcSUJrlKqIEVFAkUVEFNxXBHFFQcVdFBBxAYOKlIfakmRu0taiUpDFDVQEQaAtW1u6JXO/vz8afEBLm2Vm7jLv1zkceJ7zO8/5nfdMJnM/uYsepcLQMGBtQ0MDA1bCxoWhTyQDAAAAAFRfEHASQa2Z6TEqDPH9SYJnxxlYyWto0HQqAAAAAED1DQzwBMIEPE6CoWHA2oY4ZsBKWrmsaVQAAAAAgOrjDKxEcAbWUN+fJHh2UaQ1kpwSyXFnwAIAAACAWjDjDKwEmjNgDRED1rbfSrGkJ+mQHAYsAAAAAKjZ8RcDVo3FMQPWUDFgbd8jJEjwDRowYAEAAABAjexEgtriDKyhY8DavlUkSA5nYAEAAAAAx185xuYwRAxY2/8BXkmFRPEBCgAAAAC1sQcJaovNYegYsLbDjDU04R9mBiwAAAAAqM3x7+5UqHlzNochYsDaPt5Myf4wT6cCAAAAAFSfu55DhZpbTYKhYcDaDtbQxPEXAAAAAACozfEvx181Nn48lxAOFQPWdnA9auL9Z8yc6WMoAQAAAADVM3u27yxpB0rU9Hh388KFWkuJoWHA2g7OwEq8f7DzzpzGCgAAAADV1NDA2VcJHO+ukswpMTQMWNsRx5yBlYLXgCdhAAAAAEAVBYF2o0LNcf+r4bxHSbBtnIGVvHKZvwQAAAAAQDW5c+JAAh4kwdAxYG3HpEmcgZUCfJACAAAAQBXFMScO1JoZA9ZwMGBtx4IFtt5d6ymR6A81H6QAAAAAwHFXrrjrX1QYOgasof0gcxZWsjgDCwAAAACqiwGr9jgDaxgYsIbmIRIkigELAAAAAKqLp7/XGJcQDg8D1tDcT4JE8ZcAAAAAAKguThyoMS4hHB4GrKF5gASJ2r2jwwtkAAAAAIDKmznTx7hrGiVqKwg4A2tYvUgwJJyBlawxq1ZpTzIAAAAAQOVNmqTnmrEP1JhPmcKANRy8QYeGASvpN2qgfagAAAAAAJVnpn2pUHOPdHbaZjIMHQPW0DBgJSyOGbAAAAAAoBrc9Xwq1Nw/STA8DFhDEMfcAytpZgxYAAAAAFAlnIFVe/eRYHgYsIZgxgw94K6YEslxZ8ACAAAAgCp5Hglqy4wBa7gYsIags9M2m2kVJRLFgAUAAAAA1cGAVWNxzCWEw8WANXTcBytB7pzSCgAAAABVONoKJO1Nh9riDKzhY8AaOgasZH+4dwlD34kSAAAAAFA5LS3aU9I4StSWOwPWcDFgDR0DVtJv1oDLCAEAAACgkty5fDAJhQID1nAxYA39h5onESasXOYyQgAAAACoMI6zaq9/yhQ9RIbhYcAaaqhA91IhWWbajwoAAAAAUFGcgVV7D3R2WpkMw8OANUTu+jsVErc/CQAAAACgose6DFi1dw8Jho8Ba4gaGxmwUoABCwAAAAAqiwGr9v5GguFjwBqixYttpaS1lEjU/pIbGQAAAACgEtwkHpZV8+pc4TUiDFjDw5ssWTu0tGgvMgAAAADA6LW0aDdJO1CitszYFkaCAWt4eJMlzJ3LCAEAAACgQsdXL6BCIt3ZFkaAAWt4eJMl/4POgAUAAAAAlTm+YsBKwLhx3ANrJBiwhoHT/FKBAQsAAAAAKnOMexAVau6JRYvsUTIMHwPW8LCSJu8AEgAAAADA6HEGViLN2RVGiAGLN1rWXgMGLAAAAAAY/dFVIOlAOtQWV3aNHAPWMKxdq3sllSmR6A/79DlzfBolAAAAAGDk2tq0t3gCYc256y4qjAwD1jCsWGH9kv5JiWQVCnoRFQAAAABg5MplvZAKtRcE+gsVRtiOBMPGZYTJY8ACAAAAgNHhBu4J4AyskWPAGr67SZAsMwYsAAAAABglbuCegLFjGbBGigFrmMz0JyokK44ZsAAAAABgNHgCYSJWLVpkj5JhZBiwhimOGbCSZqYD2tt9LCUAAAAAYPg6OrzRXftRouY4+2oUGLCGyV1/pkLixmzYoAPIAAAAAADD98gjeoGZGilRW+7cwH00GLCGqa9P97trDSUS92ISAAAAAMDwxbEOpULt8QTCUfYjwXCZm/GmSwHugwUAAAAAIzmqNQasJPAEwtFhwBrZDzuXESaPAQsAAAAARiCONZMKibiTBCPHgDWyH3Zu5J4wd71IcqMEAAAAAAxdGHqDmV5IiZrbMG2a7iHDyDFgjYAZA1YKXoNdWlq0DyUAAAAAYFjHUgdJGk+J2nLXnzo7rUyJkWPAGtkPPANWCpTLeikVAAAAAGDouIF7Yrh8cJQYsEbAXX9z12ZKJPzmDXQYFQAAAABg6My4/1VCx69/oMIoG5Jg+KLIBsz0N0oky50zsAAAAABgmDgDKxmcgTVKDFgj90cSJMtdh4ShN1ACAAAAALavo8MLkg6mRO2ZcQbWaDFgjfzNdzsVEn8NJkh6ASUAAAAAYPtWrdIBknagRM2t7enRfWQYHQaskbuNBMlz5z5YAAAAADAUZjqcCon4g2ROhtFhwBohdwasVLyBuZE7AAAAAAz1OHYWFRLB5YOVOP4nwchEke6V9BglEv8A5kbuAAAAADA0DFjJHLcyYFUAA9aImUvcBysFDpo/3yeQAQAAAACeXWurT5H0P5RIBE8grAAGrFHgMsJUaFi3jssIAQAAAGBbymXNkmSUqL041u+pMHoMWKOJFzBgpYG75lABAAAAALZ53MTlg8n455IltooMo8eANToMWOkwmwQAAAAA8OzMGLCS4K5bqVAZDFijMG6c7pTUT4nEPxBmdXR4gRIAAAAA8N8Gj5e49UoCzBiwKoUBaxQWLrRNkv5CicQ/ECY//LAOpgQAAAAA/LdHHtGLJE2kRCLHq7dQoTIYsEaPywhToFDgPlgAAAAAsDVxzOWDSSmXOQOrUhiwRoknEaYG98ECAAAAgK0ftx5OhUQ80tdn/yRDZTBgjRLXs6bmA5kBCwAAAAC2LiRBItgLKogBa/RuluRkSNxzWlp8XzIAAAAAwP9pbfX/MdNulEjEChJUDgPWKEWRPe6uuymRvDjmPlgAAAAA8B/HSSEVEsMZWBXEgFUBZvotFVLxOjRRAQAAAAD+TxyrmQqJHaP+ngqVw4BVAe4MWCn5YG6lAgAAAAA8Q0iCRKwtlbhaq5IYsCrATL+jQipeh73C0J9HCQAAAACQikXfj/tfJeZmyWIyVA4DVgWMH69bJW2iRCpwFhYAAAAASHLn7KukmOkmKlQWA1YFLFxomyTdQYlUfEgwYAEAAADAluMj7n+VnN+QoLIYsCqE+2Cl5nVokZz3NQAAAIC6xw3cEz02ZcCqMA70K4T7YKXGlDDUwWQAAAAAUM+4/1Wi7o0ie4gMlcWAVSGFAmdgpYWZWqgAAAAAoJ65q40KiVlOgspjwKqQ7m792V1rKJG8OOY+WAAAAADq3jwSJIbLB6uAAatiLJZ0Mx1S8EqYmmbO9DGUAAAAAFCPOjq8UeIJhEnh/lfVwYBVWTwmMx0mTpyol5MBAAAAQD1atUqHS5pEidpz12Yz3UqJymPAqqylJEiNV5AAAAAAAMdDqLHfR5FtJEPlMWBV0IQJWiapTInkmemVVAAAAABQp7j/VXK4MqtKGLAqaOFCWyPpdkqkwotaWnx3MgAAAACoJ2Hou0p6ESWSYabfUqE6GLAq/2blMsKUvBRxzGmzAAAAAOrumHSuJKNEMhoatIQK1cGAVXkMWOnRTgIAAAAA9SSOuXwwQfd2ddl9ZKgOBqwKc1cfFVLzWhw5+PhYAAAAAKiHo6BAUhsdkmHGHlBNDFgVFkX2kKS/USIVHx6TV67UEZQAAAAAUA/CUIeaaTolkhHHXD5YTQxY1cFlhGl5gwdcRggAAACgPrhrPhUSPf7kDKxq9iVBVbC6pucD/JVUAAAAAFAPzPQaKiRmVamku8hQPQxYVVAoMGClyEFh6HuTAQAAAECetbX5XpIOpkRi+iRzMlQPA1YVdHfbXZIeokRq8FcIAAAAALnW36/XSDJKJIMbuFcfA1b1LCNBaryWBAAAAABy7igSJKdc5kqsamPAqp4SCVJjzpw5Po0MAAAAAPKovd0nSwopkQx3rZkxQ7dToroYsKrETF1USI1CEPDXCAAAAAD5tGGD2s3USInELO3stDIZqosBq0pKJfuLpPspkRqvJQEAAACAnOIP9gni/le1wYBVRe7qoUJqPlCOnDvXd6AEAAAAgDzp6PCCpHZKJKqbBNXHgFVdXEaYHuP7+zWPDAAAAADyZNUqzZE0hRLJcNejUaRbKFF9DFhV1NjICpsyryUBAAAAgJw5hgTJMVOPZDElqo8Bq4puvNH+JenPlEgHd83v6HBubAgAAAAgL0c5gbteR4dEceJKjTBgVR+XEabHTitXqpkMAAAAAPKguVlHmGk3SnDMXw8YsKqMG7mni5neQAUAAAAAuTigD9RBhUTdG0X2VzLU6P1OguoyU0lSmRKpcQyXEQIAAADIPg/imPtfJexGEtQOA1aVRZE9LvFEghTZefVqtZEBAAAAQJZx+WAqcP+rGmLA4k1dd+JYx1IBAAAAQKYP5rl8MGne2Mgtg2r6nidBTSwiQaq8Ngx9HBkAAAAAZBNPH0yB2xYvtpVkqB0GrBpYu1bLJD1BiXQw02R3tVMCAAAAQBY1N+sISbtTIlE8fbDGGLBqYMUK6+fNnS5mXEYIAAAAILNeT4JkuWsxFWqLAatGzHQDFVLlqLlzfQcyAAAAAMiSjg4viAEraesmTFAfGWqLAatGBga0UJJTIjV22LxZ88kAAAAAIEtWrlQLTx9MXPfChbaJDLXFgFUjS5bYg+66lRKp8kYSAAAAAMiY40mQLK6wSgYDVm3f5AupkB7uag9Dn0oJAAAAAFkwf75PMNPRlEhWoaBfUaH2GLBqGTtgpU0TMzWKs7AAAAAAZMTatTpa0iRKJMddt3d12X2UqD0GrBqaMkW/kfQIJVL14XMCFQAAAABkxJtJkCwuH0wOA1YNdXZa2V2LKJGqD5+XhqG/gBIAAAAA0mzuXJ8u6UhKJMudASspDFg1xn2wUvmavIkKAAAAANJs82a9SVJsIQKJAABDmElEQVQDJRL1xLp1uokMyWDAqr1fSSqTIT3cdWJHhxcoAQAAACDFePpgCo7nV6ywfjIkgwGrxqLIVrvrN5RIld1XrVKRDAAAAADSKAx9f0kzKZE4rqhKEANWMq4lQbqY6UQqAAAAAEgjHj6VitcgLhT0K0okhwErAWb6BRVS92H0uiOOcB5HCwAAACBVwtAbzPQWSiR+HL+8u9sepkRyGLASEEX2V0l3UiJVdmho0OvJAAAAACBlXiFpdzIk7loSJIsBizc//s8pJAAAAADAcQr+Uxzrl1RIFgNWUuEDLiNMGzMdXiz6iygBAAAAIA3C0HeV9EpKJO6Ovj67mwzJYsBKSE+P3SLpHkqkSxzrbVQAAAAAkAbuOknSGEok/jpwAkoKMGAl6zoSpIuZTpw/3ydQAgAAAECy3Mx0Eh1S8Eo4twBKAwasZPFDkD47rVmjY8gAAAAAIEnNzQolPZ8Sibu3r0+/J0PyGLASNG2alkhaRYl0MdOpVAAAAACQ8HHJyVRIhV9I5mRIHgNWgjo7rWym6ymROnNaW/1AMgAAAABIQhj6Tu46mhLJM+PKqbRgwEpYHHMzuJS+LjyqFgAAAEAi3HWCmbg3b/JWu2sZGdKBASthZrpR0jpKpO4Xxolh6OMoAQAAAKDGRyNmpnfQIRWujyIbIEM6MGAlLIpsoztPI0yhKe7qIAMAAACAWmppUVHSAZRIhZ+RID0YsNLwIgS6mgqpdDYJAAAAANRSHOtMKqTC49OmaTEZ0oMBKwWmTtWv3PUoJdLFTIe2tPhLKQEAAACgFpqafE9J8ymRPHf9vLPTNlMiPRiwUmDwh+JaSqRPHOtdVAAAAABQC2Y6XVIDJZJXKHClVNowYPHDgW1w1xvC0HelBAAAAIBq6ujwRjOdTIlUWB3H6iFDujBgpUQcq8ddKymRLmZqdNeplAAAAABQTatWqUPSDEqkws94+mD6MGClRBTZQBDwhIOUOn3mTB9DBgAAAABV9E4SpIM7V0ilEQNWuvBDkkJm2m3yZB1NCQAAAADVEIb+YkmzKJEKD0+frj4ypA8DVoqUSlrirn9RIn3cuZk7AAAAAI436uC1+Flnp5UpkT4MWKlisZl+SodUmt3U5IeQAQAAAEAltbb6DDO9iRLpwAPW0osBK334YUnvB9l7qAAAAACgksplnSlpHCVS4cGeHi0lQzoxYKVMFOk3ku6hRPq4641NTb4nJQAAAABUwqxZPl7S6ZRIjasli8mQTgxYqWMu6Ud0SKUxQaB3kwEAAABAJYwdq7dImkqJdIhj/YAK6cWAlU5XSHIypNLb29p8RzIAAAAAGB03iT+Qp+bVcP2xr89upUR6MWClUBTZX921nBKpNGlgQKeSAQAAAMBoFIuaL+kASqRDEOgKKqT8NSJBOplx6mKKnd3R4Y1kAAAAADBS7novFVLzWsTu+jEl0o0BK6UaGnSVpA2USKXdV67UsWQAAAAAMBLFos+U1EyJdDBTdxTZ/ZRINwaslOrqsifctYASqf2A+8DgNesAAAAAMFzvI0F6uOtKKqQfA1aaX5yAywhT7IXNzWojAwAAAIDhaGnx57rr9ZRIjXVm+gUZ0o8BK8XctUjSQ5RIJzN9kAoAAAAAhiOO9QFJYyiRmuO6X0SRraNE+jFgpVgU2QA3kku1tpYWP5wMAAAAAIaitdVnSHobJdLDnSufsoIBK+XMdDkV0iuO9WEqAAAAABji8cP7JI2nRDq461/TpqlEiWxgwEq5KLI7Jf2eEql1VBj6i8kAAAAAYFtmz/ad3XU6JdLDTFd2dlqZEtnAgJUBnNKY8s8800fJAAAAAGBbxozRuyRNokR6DrULBV1GhuxgwMqAhgb9QNJGSqRTHOuYYtEPogQAAACArZk713dw17sokSp93d12FxmygwErA7q77REe65leZgrimCcSAgAAANi6zZv1DklTKZEe7rqUCtnCgJURcazvUiG9zPTmMPTnUQIAAADA07W3+1h3vYcSqfLE5Mn6GRmyhQErI3p7FbmL0xvTq+CuD5ABAAAAwNNt2KCTzLQbJVLlhwsW2HoyZAsDVmaYS/oeHVL8Cpne0tTke1ICAAAAgPTvs68+Qol0iWMuH8wiBqwMMdPlkjZRIrXGBgFPJAQAAACwxYYNOsVMe1EiVW7u67NbyZA9DFgZEkW22l2/pESqndzW5vuQAQAAAKhvYejjJH2YEqnD2VcZxYCVMWbczD3lxpTL+jgZAAAAgLp3uqQ9yJAqGyRdRYZsMhJkjVsY6i5JPPEuvcpmOqhUsr+QAgAAAKg/s2b5+MZG/ZWbt6fO96PITiJDNnEGVuaYi1Me064Qx/oEGQAAAID61NioMxmvUng0bTwYLcsYsDKoUNDlkvopkWpvbG31g8kAAAAA1Je5c30HSe+nRLq46/ZSyZZRIrsYsDKou9selriZe5qZKSiXOQsLAAAAqDf9/TrLTNMpkbpjtG9SIdsYsLL7w/d1KqTe65qa/BAyAAAAAPWhrc13jGO9jxKp80Rjo35IhmxjwMqoUsl6Jd1BiVSzINAnyQAAAADUh4EBvcdMu1AiXdx1xeLF9iQlso0BK9s/hF+jQurND0OfTQYAAAAg3+bO9emS3kuJ9B06BwGXD+YBA1aGbd6sH0p6hBKpd6HkRgYAAAAgvzZt0rmSJlEidbpKJfsLGbKPASvDli+3DZIup0TqvaxY1NFkAAAAAPKprc33kXQKJdLHTN+gQj4wYGX9BQz0dUllSqRbHOtzM2f6GEoAAAAA+VMu6/NmaqREurjrvqlTdT0l8oEBK+N6euxed/0vJdLNTP8zaZJOpgQAAACQL83Nfpi7Xk+J9AkCfaez0zjhIy+vJwmyz4ybuWeBuz55xBHONfEAAABAvo7HPieJe96m7/hrcxDoUkrkBwNWDkSRuiX9iRKp/8U2vbFR76EEAAAAkA9h6K+Q1EqJVB5/dXZ328OUyA8GrHz8aLrEjemywF0fCEPflRIAAABA5r/dB5I+S4d0CgJ9lQo5e01JkA/9/fqBpCcokXoT3XUOGQAAAIBsa27WmyUdQon0cVdfT4/9lhL5woCVE8uW2VozXUaJ9DPTqU1NfgAlAAAAgGyaP98nmOkzlEjtMdeXqZA/DFg54q4vSeqnROqN4XRWAAAAILvWrNGHJO1JiVS6Z9o0LSBD/jBg5UgU2f3u6qREJrQVi/4qMgAAAADZEoa+h5neR4nU+lJnp5XJkD8MWHl7QQN9QZJTIv3c9ZX2dh9LCQAAACA7zPQFSTtQIpUek/R9MuQTA1bOlEp2m6QeSmTC89av1xlkAAAAALKhudlnueuNlEitS6LI1pEhnxiw8ulCEmTGea2tPoMMAAAAQNq5SfqKJKNFKvXHsb5BhvxiwMqhKLJfSbqNEulnpsnlss6jBAAAAJBuYagTzfRSSqTWT/v67J9kyC8GrPzisaHZcWqx6C8iAwAAAJBOYegT3fVZSqQXT3qvg9eYBPk0bZp+IukBSmRCIY71JTIAAAAAqfUhM+1GhtTq7emx35Ih3xiwcqqz0zabsUBnhZlampu9gxIAAABAurS0+L6S3k+JVPs8CfKPASvHxo3TtyU9QYlsMNPF7e0+mRIAAABAesSxLpY0jhKpdVsUaREZ8o8BK8cWLrQ17rqUEpnxnA0b9AkyAAAAAOnQ3OxHS3oVJVLtc5I5GfKPASvn4lgXStpIicw4ixu6AwAAAMmbP98nmHGv2pT727RpuoYM9YEBK+eWLLEHJV1BicxocNfXJTdSAAAAAMlZu1bnSNqbEqn2+c5OK5OhPjBg1YGGBn1WUj8lMmN2sagTyAAAAAAko6nJny/pPZRItYck/ZAM9YMBqw50ddl9kn5MieyIY31x9mzfmRIAAABAAgfKgb4laSwlUu3CKDJul1NPP5ckqBuflsSplRlhpukNDfoUJQAAAIDaCkN/o6RWSqSXux7t79cllKgvDFh1IorsrxI3t8uY04tFn0kGAAAAoDaOOMInuesiSqTe15cts7VkqC8MWHWkUNBnJfF40Qy9ZHGsS8LQG0gBAAAAVF9joz5jpt0okWpPmulrZKg/DFh1pLvbbnfXAkpkh5kOdefmkQAAAEC1FYv+MnedQYnU+1YU2Woy1B8GrDpTKOiT4iysTDHTJ8PQn0cJAAAAoDo6OrzRXZdKKlAj1TaWy/oSGeoTA1ad6emxW9x1IyUyZbyk70pupAAAAAAqb9UqfVTSQZRIvW8sWWIPkqE+MWDVocGzsJAtYXOz3koGAAAAoLKKRd9P0ocokXobx4zh7Kt6xoBVh3p67NeSIkpkzoWtrT6DDAAAAECleBDHukzSOFqk/JVyffPGG+1flKhfDFh1ykwfp0LmXrNdymVdTAkAAACgMsJQZ5jpcEqk3sbGRl1EhvrGgFWnSiVb5q7FlMicY4tFfw0ZAAAAgNE58kjfTdKnKZF+nH0FiQGrrhUKOkc8kTCLH95fb2/3yZQAAAAARq6/X9+RtCMlUm+Dmb5IBjBg1bGeHvutpOspkTl7bNjA6bMAAADASBWLfqKkoyiRfmb6dhTZQ5QAA1adi2N9zF0xJTLnlGLRX0kGAAAAYHiOPNJ3c9dXKJEJGxsadCEZIDFg1b2+PrsjCPQzSmSPuy4JQ9+JEgAAAMCQv0Vbf7++J2lnWqSfmb7Fva/wFAYsKAh0nqQyJTJnd3eeSggAAAAMVXOzTpHUTolMWDdmjD5PBjyFAQvq7rY/SrqKEtljphOLRX8dJQAAAIBta2nx50pcjpYhFy1ebCvJgKcwYOEp50kaIEP2uOvbc+f6dEoAAAAAz/qt2cplXWImnuadDavHj9eXyICnY8CCJCmK7K/u+gElMmlafz83oQQAAACeTRjqDDPNpUQ2mOlzCxfaGkrg6Riw8G+Fgs6XtIkS2eOu44pFP4YSAAAAwDO1tPi+ki6gRGbc765vkgH/iQEL/9bTY/ea8UGRVe76Vmurz6AEAAAAsEVHhxfiWJdL2oEamTmuOT+KbCMl8J8YsPAM/f36lLsepUQmTSuXdYXkRgoAAABAWr1aH5I0hxKZcbeZLicDtoYBC8+wdKk9ZqYvUiKz5jU360wyAAAAoN4Viz4zjnUuJbLDTB+PIuPhYtj6+4ME+E9h6OPc9Rcz7UWNTNpUKOil3d12OykAAABQj+bO9R02b9YKSftRIxvcdXtvrw6RLKYGtoYzsPBfBq83Po8SmTV2YEBXtrf7WFIAAACgHm3erIvFeJU1H2a8wrYwYGGrent1haTfUyKbzHTw+vX6LCUAAABQb5qb/WhJJ1MiU0q9vbaQDNgWBiw8C4vN9DE6ZPgVNL2nWPRXUgIAAAD1oqXFdzfTdymRHe6KzfQBSmB7GLDwrEolu0FSNyUyy+JY3w1Dn0oKAAAA5J8HcawrJE2hRYYOWkw/KJVsBSWwPQxY2J4PS3IyZPaXwW4Sf4ECAABA/jU3632SWimRKRsknUMGDAUDFrYpiuxmSVdTItNeG4b+TjIAAAAgr5qb/TBJn6ZE5nwpiux+MmAoGLCwXQ0N+pi7NlMi0y5qafFDyQAAAIC8CUPfSdJVZmqkRqY83N+vC8iAoWLAwnZ1ddnfg0AXUyLTxsaxftre7pNJAQAAgJz5npn2IUPmnLtsma0lA4aKAQtDsnmzPiXpQUpk2r7r13M/LAAAAORHc7O/S9IxlMicP0u6lAwYDgYsDMngMv4JSmSbmd5QLPpplAAAAEDWtbb6wWb6AiUyeVzy/iiyAUpgWO8bEmDoPAhD/UbSS2iRaRvjWIf39dmtpAAAAEAWHXGETxozRr+TtB81MieKIiuSAcPFGVgYBouDQGdJclpk2rgg0NXcDwsAAABZ1dCgb4vxKovKZjqbDBgJBiwMS0+P/dpM11Ai856/YYMuIQMAAACyJgz9nWZ6EyWyx13fKZXsNkpgJBiwMJIPnQ9K2kCJzDuW+2EBAAAgS1pa/FBJF1Iikx5paOC+yhg5BiwMWxTZPyRdRInsc9fXi0U/ghIAAABIu3nzfJdyWZ2SxlEjk8ce53R32yOUwEgxYGFEJk3S59x1HyUyb4y7fjJnjk8jBQAAANLLg02b9CMz7UOLTLrTTN8lA0aDAQsjsmCBrZf0cUrkwp6Fgq4OQ28gBQAAANKoWNSnJb2CEtlkpjOjyAYogdFgwMKI9fbqh5JuokQ+vhNI+jQZAAAAkDbNzX60uz5Micy6qlSyXjJgtBiwMArmZjpTUpkWufDB5mbvIAMAAADSorXV/8dMl0syamSPu9YHAeMjKoMBC6NSKtkKSd+mRC6YmS5rbfUDSQEAAICkhaFPHBjQLyTtSI2sHmDosz09di8lUAkMWBi18eP1UUkPUiIXJpbL+nl7u08mBQAAAJLjZqbLzMQfV7P6Crr+Lp5ejwpiwMKoLVxoa9z1IUrkxn4bNugyyTlNGwAAAIkIQ33QXdzeIsPMdFYU2UZKoGLvKRKgMtzCUN3acjNw5MN5UWSfJAMAAABqqVj0ee76X0kFamT06ND1895eO4YSqCTOwEKFmJvpXZL6aZEb54ahH0sGAAAA1EoY+v7uukqMV5nlrvVmeh8lUGkMWKiYUsn+YKavUCI3TNLlxaLPJAUAAACqbd4830XSdZJ2okZ2BYHOiSL7ByVQ8fcWCVBJEyfqPEk8ZSI/xrvrZ3Pn+nRSAAAAoFrC0Bs2bdJPJT2fGpl2x5o1+hoZUA0MWKioBQtsvaT3UyJXnrtpk37R3u5jSQEAAIBqcNfFklopkenXMA4Cnb5ihXFbGVQFAxYqLorsGnfdQIn8MNPhGzboO5QAAABApRWL/jYznUGJzPteT4/9mgyoFgYsVIWZzpLEI1Pz5S1h6GeRAQAAAJUShh6669uUyDZ3rRw3Th+hBKqJAQtVEUX2V3edT4ncubBY9HlkAAAAwGi1tfk+kq6RNIYa2RYE+sCiRfYoJVDV9xkJUC1m+qK7bqFErjS4q7NY9BeRAgAAACPV1uY7Dgzol5KmUCPzlpRKupIMqDYGLFRNFNmAmU6WNECNXJkUx7ohDH0PUgAAAGC4Zs70MQMD+pmkF1Aj8zbFsd4umZMC1caAhaqKIvu9pIspkS9m2k3SdWHoE6kBAACAoXObPFmXiicO5sV5fX32JzKgFhiwUHWTJukTkv5Gidw5RNJPw9AbSAEAAIChCEOd764TKJELt61dq4vIgFphwELVLVhg6911qiROK82fdjN9kwwAAADYnmLR3ybp45TIhQEznbxihfWTArXCgIWa6O21kqQfUCJ/3HVqc7O/hxIAAAB4NmHoYRzrW5TIjQtLJVtBBtQSAxZqZuxYvVfSw5TI5y+wYtFfRwYAAAD8p2LRD5L0CzM1UiMX7t60SeeTAbXGgIWaWbTIHpV0NiXyx0xBHOvK5mafRQ0AAAA85cgjfTd3LZS0EzVywc106vLltoEUqDUGLNRUFNlV7rqOEvljpglmWtDU5AdQAwAAAG1tvmN/v/5X0p7UyM13/m+XStZLCSSBAQs1564zJT1BiVyaYqZfhaHvQQoAAID6NWuWjx8Y0AJJL6ZGbtxfKOgjZEBSGLBQc3199k93cdPvnDLTXpJ+NXu270wNAACA+hOG3jB2rH4iaQ418sNdZ3R1GSciIDEMWEhEb69dLukXlMitgxoatHDuXN+BFAAAAPXETdK3Jb2GFrlyRW+vLSADksSAhcSUy3qnux6lRG69bPNmXRWG3kAKAACA+hCG+qykkymRKw8MDHAFDZLHgIXELFliD5rp3ZTItaMkXT74lzgAAADkWLHoZ0j6MCVyxd116tKl9hgpkDQGLCQqiuxHkq6hRK4d39ysT5MBAAAgv5qb/bg41tcokTvf6e21hWRAGjBgIXGNjXqnpFWUyC8zfTQM/X2UAAAAyJ8w9FdI+r4Zx5c5c4+kD5ABacEHDBK3eLGtNNOplMi9L4ahn04GAACA/CgW/QhJ15ipkRr54a7YTCdFka2jBtKCAQupUCrZLyVdRYlcM0nfLBb9baQAAADIvmLRX+auhZJ48nTOBIEuLpWslxJI1fuSBEiLQkFnSnqIErlm7rqkWPQ3kAIAACC7Wlv94DjWDZImUSN3/rJxoz5GBqQNAxZSo7vbHjHT2ymRewV3/aBY9HmkAAAAyJ7WVj+wXFaXmXahRu6UJb11+XLbQAqkDQMWUqVUsuskfY8SuTc2jvXzlhZvIgUAAEB2hKE/b2BAN0qaRo38cdcFUWQ3UQJpxICF1Gls1NmS/kKJfDPThHJZC5qb/TBqAAAApF8Y+h6SFptpN2rk0orp0/VJMiC1x5AkQEp/Ob5E0q8ljaFGvrnr0YYGFbu77XZqAAAApNOcOf6cQkG9kp5PjVxaF8c6tK/P7iYF0oozsJBKUWQ3u+tcSuSfmXYpl9XV1OQvpAYAAED6tLb6jCBQlxiv8uxsxiuk/tiRBEgvD8JQXZKKtKgLq+JYrX19dgcpAAAA0mHuXJ++ebN6JB1Ejdz6RRTZ68iAtOMMLKSYxZJOdNejtKgL04JA3ZyJBQAAkA6MV3XhgUJBp5IBWcCAhVSLIrvfTG+nRN1gxAIAAEiB1lafwXiVb+6KzfSW7m57hBrIAgYspF4U2TVmupISdYMRCwAAIEGtrT6jXFa3GK/yPQYEuqhUsm5KIDPvWRIgC9x1hiRuKlg/GLEAAAASwHhVN26dOlUfJwOyhJu4IzNaWvzwOFavpAZq1Ad3rQwCtZRK9gdqAAAAVNecOf6cQkE9kvanRq6/Y69310v6+uxP1ECWcAYWMqOnx35tpk9Ron6Yabq7SmHoL6YGAABA9bS0+O6FgkpivMr/CBDoXYxXyOTxIQmQLR6EoX4l6Uha1JXH3fXK3l5bTgoAAIDKamnx58axuiQ9jxq5d3UU2RvJgCziDCxkjMWNjTpe0oO0qCs7menGMPQ2UgAAAFROGPr+caylYryqB38dP16nkQFZxYCFzFm82FZKepOkMjXqyg6Sri8W/dWkAAAAGL3B2zT0SdqDGrm3MY71hoULbQ0pkFUMWMikKLLIXZ+hRN0ZG8fqLBb9GFIAAACMXHOzHyapS9I0atSF9/T12a1kQJZxDyxkmAdhqEWSuKys/pQlnRxFdgUpAAAAhqdY9GZ3LZA0iRp14Zoosg4yIOs4AwsZZnGhoOMlPUSLulOQdHkY+pmkAAAAGLpi0V/proVivKoXf2to0ClkQB4wYCHTurvt4SDQW9wVU6PumKSvhqG/jxQAAADbF4Z+rLuulTSeGnVhk6Q3dnXZE6RAHjBgIfN6emyxpM9Toi6ZpAubm/1iyfk8AwAAeBbFop/hrh9LGkONOvmibPpgFNnNlECeDv6AzAtDb3BXt5maqFG3rpB0ShTZACkAAAD+T7Ho57vrHErUlWuiSG+QzEmBvGDAQm60tPjucawVkmZQo25dP2mSjl2wwNaTAgAA1LuODi+sXq1vuetUatSVP/f366XLltlaUiBPGLCQKy0tfngcKxKnRtez30g6KopsNSkAAEC9am/3sRs36kp38fS5+rLOTC8vlewPpEDecM8Y5EpPj/1a0kcoUdde5q7epibfkxQAAKAehaHvtH69FjNe1R8zncx4hdy+v0mAPGpu9qvN9AZK1LV7zTSvVLK/kAIAANSLMPRdJS2U9GJq1J2LosjeTwbkFWdgIZfMdLK7/kiJuvZcdy1tafHDSQEAAOpBsej7SVouxqu6464+SR+mBPKMAQu5FEW2zl2vlfQENera1DhWT3OzH0cKAACQZy0tfri7lkjamxp156HGRh3H07iRdwxYyK2+PrvbTCdK4tGx9W2smX4Uhn4eKQAAQB41N3tHHKtb0jRq1J0Bd73hxhvtX6RA3nEPLOReGPrnxOm02OJ7kt7BX6cAAECOvuueJenLHNvVrbOjyC4mA+oBH3LIvY4OL6xapV9JaqMGJP2vpDdGka0jBQAAyPB33MZVq3SJpLdQo279KIrseDKgXnAJIXKvs9PKY8fqWEn3UAOSXuWuZU1NvicpAABAFs2e7TsP/oGW8ap+3Tppkk4jA+oJZ2ChbhSLPnPwxpbjqQF33WemV0WR3UkNAACQFU1N/v+CQP8r6QBq1K2HJB0WRXY/KVBPOAMLdaNUshXuOlnc1B2SzLSXpKXFor+SGgAAIAvC0F8eBFouxqu65a7NZno94xXqEQMW6kpvr/3EXZ+jBAbt6K7rwtA/RAoAAJBmzc1+nKQeSTOoUccH8IHeVSrZMkqgHnEJIeqQB2Gon0t6DS3w7w9D0082btTJy5fbBmoAAIC0GHwg0Wck8Qc3vq9+rVSyd1MC9YozsFCPH/2xpOMl3UELPMVdx40dq+4w9F2pAQAA0uCII3zSypX6uRivIC2dOlXvJwPq+kieBKhXYeh7S/qtpGnUwNM8YKbXlEq2ghQAACApLS2+b7ms68x0IDXq3r3lsg5bssRWkQL1jDOwULeiyP4h6XXu2kwNPM3u7uotFv11pAAAAEloafGmONZyxitI2mCmYxivAAYs1LkosqVmOosS+A87uOua5mY/R3LOVAUAADXT3OzvimN1i6sE6p67Yne9mSsDgC04MAO2fFH4hpnOoAS24trx4/WWhQttDSkAAEC1hKGPM9M33XUSNSBJ7vpgb699kRLAFpyBBUgy01nu6qEEtuK1Gzbo5jD0F5ACAABUQ1OT7+muXsYrPMVdlzFeAc/EgAVIiiIbGDdOHe66ixrYiudLWt7c7B2kAAAAlVQs+rwg0K1meik1MKhr3TqdTgbgmbiEEHiapib/f2a6yUzTqYGtcdcl69bpzBUrrJ8aAABgFN8qLAz1QUmfkVSgBwb9eWBAhy9dao+RAngmBizgPzQ3+2GSIjNNoAa2+nXT1WemY6PIHqIGAAAYrvZ2n7x+vS43E089xtOtljQriuyvpAD+GwMWsBWDl4pdZcZltnhWD0h6fRTZTaQAAABDFYa+v6SfSzqAGniajUGg1p4e+zUpgK3j4BzYit5e6zTTRymBbdhdUlQsOk+vBAAAQxKGfrykm8V4hWdySScxXgHbxhlYwDY0N/t3zHQaJbDND1JT57hxOmXhQltDDQAA8J9mzfLxY8fqa5JOpga24pwosk+TAdg2zsACtmH6dJ0haQElsC3u6tiwQbcXi/4yagAAgKcrFn2/xkbdJMYrbN2ljFfA0DBgAdvQ2Wnl/n69WdJt1MB2PNddvWHoZ5ECAABIUnOzn+Cum810MDXwn9x1g6TTKQEMDZcQAkNw5JG+W3+/bpK0JzUwBNcODOhtPP4YAID6FIY+zl0XmOnd1MCzuFlSMYpsHSmAoWHAAoaoqckPCQL1SppEDWyPu/5upmOjyG6mBgAA9aNY9IPiWD8104HUwLP4a2Ojjli82FaSAhg6LiEEhqivz2511zHu2kwNbI+Z9pG0dMslhc4fCwAAqAPFor8tjvVbxis8G3etlNTOeAWM4BiLBMDwhKG/0V0/MmMAxpB1jRmjt9x4o/2LFAAA5E9bm+84MKBvSHozNfBs3LVeUltvry2nBjB8HIADwxRFdlUQ6F2UwHC+1/b36/fFor+aFAAA5EtzsxcHBnSnGK+wbeUg0JsYr4CR4wwsYISKRf+suz5CCQzrQ9d05ZgxesfixfYkNQAAyK4w9AZJHx/8p0ARbIOb6ZRSyS4jBTCKYykSACP/PVQs6lJ3nUQLDOud4/pjEOhNpZLdRg0AALKnqckPCAL9SNIh1MAQvvt9orfXPkUJYHS4hBAYMfOpU3Wqu35OCwzrnWM60F2/C0M/T3I+hwEAyJBi0U8MAv1OjFcYmq8zXgEVOo4iATA68+f7hLVrtVjSEdTACNwYBDqpp8ceIAUAAOnV2uozymV9T9JR1MAQXRFFOkkyJwUwevzlHxilBQtsfUODXiWJy8EwEkfGsf5QLPpppAAAIJ2am72jXNYdYrzCELnrOkmnMF4BlcMZWECFtLT47nGsZZKeSw2M0MIg0KmcjQUAQDqEoe/krgvMxB+aMBwlSa+MIttICqByGLCAyn7J2d9dvWaaTg2M0GpJZ0aRXU0KAAAS/V73WknfljSDGhiG3/X3q3XZMltLCqCyGLCACmtt9YMHBlQy0y7UwIg/nE2dAwN655IltooaAADUTlub79jfry9w1hWGy113jR2rOYsX20pqAFU4RiIBUHnFor/MXTdKmkQNjOJL0Mog0DtKJeNJlwAA1EAY+iskfVfSHtTAMP2zoUGzu7rsPlIA1cGABVRJc7MXzfS/ksZTA6P0w0JBZ3d32yOkAACg8sLQdzLTl9x1EjUwAg/Hseb09dndpACqh6cQAlXS22ulINBrJW2iBkbp+IEB3cWTCgEAqLzmZp8v6Q7GK4zQ43GsdsYroPo4Awuo/peio830U0kN1EAFLAwCvaOnx+4lBQAAIxeGvqukr0l6PTUwQk9Iaosiu5kUQPUxYAE10NzsJ0j6vhlnPWL03LXeTOdPm6YLOzutTBEAAIb1m9SKRZ0Qx/oyD93BKL6PrQkCzS2V7DfUAGqDAQuokWLRz3DXNyiBCn5xusVdp/T12a3UAABg+8LQn+eu75iphRoYxXew9UGgV5ZK1ksNoHYYsIDafmk6W9KXKYEK6pf0pfHjde7Chcb91gAA2Pp3sAZJ75N0nqRxFMEobAgCHdXTYz2kAGqLAQuo/Reo8ySdSwlU2J/ddUZvr5VIAQDA/2lu9jlm+qakF1ADo7TJTK8plWwRKYDaY8ACEsCIhSq6Po51Rl+f/ZMUAIB6Nm+e77Jxo86VdCb3IUUF9Jvp9aWSXUcKIBkMWEBCGLFQRU9K+pSki6LIBsgBAKgvHhSLOt5dF0maSg9UQFnS8VFkV5ECSA4DFpCgYtHPd9c5lECV3BYEOqOnx35NCgBAPWhu9sMGLxd8CTVQIQPaMl5dTQogWQxYQPJftD5ppk9QAlXiZvrhmDF6/+LFtpIcAIA8CkPfyV2fNNM7JRUoggopm+nEUsl+TAogeQxYQDq+dH1K0scpgWpx16Nm+ti0afpuZ6eVKQIAyMlvuKC5WW8x0wWSptEDFdRvpjeWSvZzUgDpwIAFpASXE6JG/iTpvVFkvyIFACDLWlr8pXGsr0iaRQ1Ukrs2m+nYKLJrqQGkBwMWkCKMWKih64NAZ/f02N9IAQDIkpYW391dn3PX8RzPoNLctTkI9IZSyX5JDSBd+MAHUoYRCzXU765vTZigcxYutDXkAACk2fz5PmHtWr1LW267MJEiqLTB8aqjVLLrqAGkDwMWkELcEws19pCZPlYq6fuSxeQAAKSLWxjqTZI+L2kPeqBKNpjp6FLJFpECSCcGLCClwtA/LOlzlEDNDg9ct0g6u7fXllADAJAGxaK/zF1fkfRyaqCK34HWm+k1UWRd1ADSiwELSLHmZn+XmS7mZxU19gtJH40i+zMpAABJCEN/npk+667X8z0IVbZW0qujyCJSAOnGLwMg/V/gjpd0uaQGaqBW3BUHgX5mpg/09Ni9FAEA1EJrq08pl/UBSWdLGksRVNnj7nplb68tJwWQfgxYQAaEoR8r6UpJY6iBWho8pf5rkj4fRfY4RQAA1fC0G7R/RNKOFEENPGymeaWS3UYKIBsYsICMKBb9Ve66RtI4aqDW3PWomb4g6eIoso0UAQBU6DdMUCzqeHd9XtJz6IEafa+5r6FBR3Z3213UALKDAQvIkJYWn1su6xdmmkANJOQfks6JIv2YJxYCAEbOLQz1GkmflXQAPVBDdzc0qK2ry+4jBZAtDFhAxrS0eFO5rAVmmkwNJOgOd53b26trJXNyAACGKgz9FZLOl3QYNVDr7y+S5kaRPUQKIHsYsIAMKhZ9prsWSZpCDST9RdBdn+rt1TUMWQCAbQlDny3pU5JCaiABKyS9IopsNSmAbGLAAjKqqclfaKZfmWk3aiBp7vptEOgTpZItogYA4OmKRT/CXZ+SVKQGEhL19+vVy5bZWlIA2cWABWRYGPre7lpkpv+hBlJiWRDoEz091kMKAKhvzc1+mJnOl/QKaiBBv9y0ScctX24bSAFkGwMWkHFz5vi0QkE3SHoJNZAive46p7fXlpACAOpLS4sfWi7rXDPN53gDiR7smr47dare0dlpZWoAOfiZJgGQfXPn+g6bN+sa8RdOpM8yd13Q26vruUcWAORbS4sfHsf6iKRXcZyBFLggivQRvn8A+cEvFiAnOjq8cdUqXSHpjdRACt1mpi9Nnaof8VdQAMiXwZuzf0jSUdRACriZ3l8q2ZdIAeQLAxaQs9/Xzc260EzvpQVS6m9m+oK7LosiGyAHAGRXGHqbpPMlzaIGUvFN2LXZTCdGkV1NDSB/GLCAfH6h/JCkz1MCKfYPSV/ZtEmXcFNVAMjURGDNzTrKTOdIOoweSJF1QaBjenpsMSmAfGLAAnKqWPTT3PVNSQVqILWHQa5/menLDQ36bleXPUERAEinMPRxko6X9F5JB1AEKfOQpPYost+TAsgvBiwgx4pFf527fiRpHDWQZu5aI+l7hYK+2tNj91IEANKhtdWnlMt6h6QzJc2gCFLo7oYGvaKry/5OCiDfGLCAnAtDf7m7fmmm6dRA2rkrNtMN7vpsb68tpwgAJKOtzffp79dZZjpZ0g4UQUrd1Nio1yxebCtJAeQfAxZQJ19CBwZ0g6T9qIEMWWGmr/LkQgConWLRZ0o6y13HSWqgCFLsZ5s26QTupQnUDwYsoE4MXgLwS0lHUAMZc7eZvjJmjK5YvNieJAcAVNbMmT5m8mQdHcc6y0yHUwRp564v9Pbqw5I5NYD6wYAF1JH2dh+7fr0uM9ObqIEMflldI+mqhgZd3N1tf6QIAIzO3Lk+ffNmneSuM8y0F0WQAWUzvbtUsm+SAqg/DFhA/c0AFoY6V9K5tEBW38SSut11iZl+EUU2QBIAGLpi0WfGsU4z0wmSxlMEGbFO0nFRZNeTAqhPDFhA/X55fZu7vi1pDDWQYQ9I+l65rG8sWWKryAEAW9fR4Y0rV+o1ZjpNUhtFkDEPBoGO6umxW0gB1C8GLKCONTd7u5muljSJGsi4jZKuctc3e3vtd+QAgC1aWvy5caxTJJ0qaQZFkDXuut1Mr4oiu58aQH1jwALqXBj6iyVdL2l3aiAnVkj6XkODftLVZU+QA0C9mTnTx0ycqKPMdKq75pkpoAqyyF03TJig4xYutDXUAMCABUAtLb57HOtaSS+hBnL0pXe9pGskfa+315ZQBEAd/D7f110nu+utkp5DEWTcRdOm6UOdnVYmBQCJAQvAoDD0cWa6xF0nUAN54667zHRZoaDvd3fbwxQBkBdPu7fViZLaJRWogoz/zt4s6fTeXrucGgCejgELwNO/MlgY6mOSzufzATnV764FQaBLp07VIv6qCyCrmpr8hWZ6q6TjzTSdIsjFN1HXyiDQ60olW0YNAP+JA1QA/6VY9FfFsX5spsnUQI6/JP9L0jVm6owiW0oRAGk3b57vsnmzXu+uEyUdQRHkzB2SXh1F9g9SANgaBiwAW9XU5C8MAl0naW9qIO/c9Uczdcaxrujrs3soAiAt2tt97Pr1mhsEOsFdr5U0hirI4e9hbtYOYLsYsAA8q9ZWn1Iu6xpJITVQJ1+gYzMtN9MPxo3TVXyRBpCUYtFnxrFONNNxkqZRBHn91SvpC1Gkj0oWkwPAtjBgAdimwZvDfstMb6MG6swGSb90148nTNDihQttE0kAVFNrqx88MKBjzXSspH0pgrz/nnXXyb299hNSABgKBiwAQ1Is+mnu+oakBmqg3rhrvZl6zNQ5caKuWbDA1lMFQCU0Nfn/CwK9QdJbJB1AEdSJf7rrmN5e+x0pAAwVAxaAIWtp8blxrB9LmkIN1LEnzHRdHKuTM7MAjPD36b7uOjaOdayZDqYI6syNhYKO6+62R0gBYDgYsAAMSxj63u76mZkOpQbAmAVgaIpF32/wJuzHSDqMIqhDLukL06bpY52dViYHgOFiwAIwbGHo4yR9S9JbqQH82xOSfmWm6/r7tXDpUnuMJEBdH6tbGGqmu46W9FozHUgT1LF17npbb691kgLASDFgARixYtFPi2N9zUyN1ACeoSzpJkkLJP0yiuzPJAHyr6PDC6tWaZako7TlTKvnUQXQXyUdHUV2JykAjAYDFoBRCUN/uaRrJO1ODeBZ3Wm2ZcwqlfQ7HhUO5Edbm+84MKAjJR3lrvlm2oUqwL9dL+mEKLLHSQFgtBiwAIxaa6vPKJd1taRmagDb9ZC7bggCLWpsVNeiRfYoSYBsaWryFxYKandXu6TZ4gm9wDO4KzbTp6JI5/NHGwCVwoAFoCLC0BskfVrSB/lsAYb1Bf9WSV2SutauVe+KFdZPGSBd5s/3CWvX6nB3zdeW+1ntRRXgWa1214m9vbaQFAAqiYNMABUVhv5GSd+TtAM1gGF7TFK3pEVxrEV9ffZPkgBJ8KClRS8ul9VqpnnumsP9HoEh/OS4fm2mY6PI7qcGgEpjwAJQca2tfuDAgDp54hIw6gOBP5qpx0zRwID6liyxVVQBqqOpyZ8fBGqV1CqpKGkKVYCh/8qS9KW1a/URziQGUC0MWACqIgx9nLsuMNO7qQFU6OjA9XcNXm5oplIU2WqqACMzd65P37RJzZLazDRX0t5UAUb0u2mNmU6OIruGGgCqiQELQFUVi36iu74pLikEKn7MoC1PN4wkRe7qY9ACnl1bm+9TLmu2pNnumi3pAKoAo3ZzHOsNfX12DykAVBsDFoCqKxZ9vzjWT810MDWAqnrQTEvdtcxMS0sl3crTn1CPOjq8sHq19pd0hLYMVnPEGVZAZQ8kTVdu3Ki3L19uG6gBoCafOyQAUAuDT3D6qqSTqQHUhrvWSLrJTMsl3dTQoOVdXfYEZZA38+b5Lps367A41kvNdISkwyVNogxQnd8tZjotiuxqagCoJQYsADUVhn68pG9JmkgNoOYHHbGZ/uSu3wSBVrjrlk2bdBt/PUeWzJrl48eP1yFxrJe66zAzHSbp+ZQBavJ75LeFgt7U02N/owaAWmPAAlBzXFIIpMqApD9JusVdK4JAt4wZo98vXmxPkgZJa2/3sZs26aA41iHueungWPVCSQ3UAWpn8A8gX1y7VufwlEEASWHAApCIWbN8fGOjvmKm06gBpE7ZXX8x0y2Sfh8EukPSH3p67AHSoFpaW33GwIAOlvRiM71I0osk7S/GKiBpD0o6MYqsixQAksSABSBRxaK/zl2XSJpCDSD1HpN0p6Q/mG0ZtRobdceiRfYoaTBUc+f6DgMD2i+OdYC7Dn7aWLUrdYB0cdcNY8fqpMWLbSU1ACSNAQtA4lpafPc41vcltVEDyKQHJd3prj+Z6a4g0N0DA7p7xgzd19lpZfLUpzD0qUGgA921v6T93XWgtpxRtRffQYHU2yTpw1GkiyVzcgBIA748AEgJD8JQ75X0aUlj6QHk4wDIXX8z092S7jbT3XG85d9RZPeTJ/sGL/vbx0z7uG/5t6TnSTpAnFkLZNVf4ljH9fXZraQAkCYMWABSJQz9xZJ+PHjwAyC/Nkq61133muk+d90n6R+Fgu6NY923dq0e4EbBqfhMnmqm3d21p6S9nxqqpH//swOVgFy5VNLZUWTrSAEgbRiwAKTOrFk+ftw4XeSu0/mcAupWWdK/tGXkus9MK830oKSHJD1cLutfY8ZoZXe3VnJ5y/C1t/vYDRs0zV3PCQLtFsfay0y7S9pd0p6D/95D0jhqAfnnrpVBoFNLJbuOGgDSigNDAKkVhn6Uuy4103RqAHgWA5JWSXrIXQ8ODl2PuetRacu/g0CPmumxONajhYIe6+7Wo3kavcLQJwaBdjTTjuWyJrtr5yDQNElT3TXNTDPcNVXSVEnTJM2QNIm3DoBBv2xs1GncqB1A2jFgAUi11lafUS7rcknt1ABQQY+56zEzrdeWyxkfl7TBTBvjWI8FgTa5a727npC0MQj0pCS5a7P7lv8etM5M/ZJkJh/8vyNJimNNMHv2e/oFgYJyWTsGgUzSToP/653cZWba0V2BmSbHsQpBoEnumihpsqQd3TXZTDu7a0czBbycAIbLXWuCQO8plewyagDIAgYsAFn4imXFot7hrgskTaQHAADAqCyJY72lr8/uIQWArOAvdgAywLxUsm9KeqGkEj0AAABGpF/SJ6dNU5HxCkDmjgpJACBbPAhDvVvSZyWNpwcAAMAQvkG5bm9o0And3XY7NQBkEWdgAcgYi6PIvtLQoBe4q48eAAAA2zQg6YIJE/RSxisAmT4SJAGA7PKgWNQpcawvm2kCPQAAAJ7hDklviyK7mRQAso4zsABkmMWlkl3S0KDDJP2OHgAAAJIGz7qaNk0vYbwCkJujPxIAyIMw9AZJ75P0SenZH1sPAACQZ+66vVDQST09dgs1AOQJAxaAXGlt9YPLZV0q6SXUAAAA9cJdm830qbVrdcGKFdZPEQB5w4AFII9f4YJiUae46yJJE+kBAABy7rY41kl9fXYrKQDkFffAApBDW+6NFcc62F2L6QEAAPLIXevN9CFJL2G8ApD7ozwSAMi75mbvMNM3JE2jBgAAyImoUNDbu7vtLlIAqAcMWADqwuzZvnOhoM+b6TRqAACArHLXo0Ggj5RK+q5kThEA9YIBC0BdaW72djN9S9JzqQEAADJ18GbqdNcZUWSrqQGg7j4DSQCg3syf7xPWrtUnJL1fUoEiAAAg5f7mrnf09tqNpABQrxiwANStlhZ/aRzrm5JmUgMAAKRQv6QvSPp0FNlGcgCoZwxYAOpaR4cXVq/W2931GUk7UQQAAKTEEklnRJHdSQoAYMACAEnSvHm+y8aNOlfSmWYKKAIAABLyiJk+yk3aAeCZGLAA4GnC0Ge76xtmOpgaAACgVtwVB4F+FAR6T3e3PUIRAHgmBiwA+A9h6A2S3umu8800mSIAAKDKbg4CvbOnx35LCgDYOgYsAHgWc+b4cxoadIG7jufzEgAAVJq7HjXT+VGkr0kWUwQAnh0HZACwHS0t3hLH+oak/akBAAAqoOyu75TL+vjSpfYYOQBg+xiwAGAIZs70MZMm6Z2SPiFpZ4oAAIARWhIEOrunx24hBQAMHQMWAAzDU08rNNMZkhooAgAAhuh+M32sVNKVPF0QAIaPAQsARqBY9P3cdZGkV1EDAABsw5OSLty0SRcsX24byAEAI8OABQCjEIbeJukrkg6iBgAAeBo30zWFgt7f1WX3kQMARocBCwBGaeZMHzN5sk5y12ckTaUIAAD1zV2/lXR2b68tpwYAVAYDFgBUCPfHAgCg7nGfKwCoEgYsAKiwMPQXuOsCM72SGgAA1IXH3PU5M30timwjOQCg8hiwAKBKmpt9lpkukDSHGgAA5I+7Nkv6fhzr40uW2CqKAED1MGABQJUN3uj9y5JeQA0AAHLhqRu0f7iry/5ODgCoPgYsAKiBMPQGM73NXedJeg5FAADIrK4g0Id6euwWUgBA7TBgAUANzZ/vE9au1bskfUTSjhQBACAz/iDpw1Fk15MCAGqPAQsAEjBnjk8LAn1c0ulmaqQIAADp5K6/m+ncKNKPJYspAgDJYMACgAQ1Nfn/KxT0SXe9SVKBIgAApMb9kj69dq0uW7HC+skBAMliwAKAFGhq8v9npg+b6WQxZAEAkKTVki7ctElfXb7cNpADANKBAQsAUqS11Q+MY32YM7IAAKgtdz1qpq+NH68vLVxoaygCAOnCgAUAKVQs+kGSznXX6/msBgCgqtZJ+oakz0eRPU4OAEgnDooAIMWKRZ/prvMkHUUNAAAq6klJXy8U9MXubnuEHACQbgxYAJABxaK/SNLH3NVBDQAARmWduy4z0+eiyB4iBwBkAwMWAGRIS4sfHsf6uKRX8BkOAMCwPO6ur44bp4sXLbJHyQEA2cLBDwBkUGurHxzHej83ewcAYLsekfT1gQFdvHSpPUYOAMgmBiwAyLC2Nt+nv19nmentksZSBACAf1st6RsNDfpyV5c9QQ4AyDYGLADIgbY232tgQB+QdLKk8RQBANSxB8104Zgx+s7ixfYkOQAgHxiwACBH5szxaYWC3inpLEk7UQQAUC/c9XczfXXTJl2yfLltoAgA5AsDFgDkUBj6TpLOlPRuSdMoAgDIsd+Y6Qulkq6VLCYHAOQTAxYA5Fh7u4/duFHHxrE+ZKYDKQIAyJFl7rqgt9cWkAIA8o8BCwDqglsYqlVbLi18FZ//AIBM/jZzxWa6QdIno8hupggA1A8OYACgzrS0+KFxrPdKeoOkMRQBAGTAWkmXDj5R8D5yAED9YcACgDoVhr6rpNPd9S4z7UIRAEAK3SPpOwMDumTpUnuMHABQvxiwAKDOhaFPNNOb3PVeSftRBACQAivM9FV3/TiKbIAcAAAGLACAJKmjwwurV+s17jpDUgu/IwAANbZJ0lVxrIv7+uxWcgAAno6DEwDAf2lq8ucHgU5216lcXggAqCZ3rTTT5UGgr/X02AMUAQBsDQMWAOBZhaFPlPRmd51hpoMpAgCooJvM9K1x43T1woW2iRwAgG1hwAIADEmx6DPjWKeZ6URJ4ygCABiBjWbqLJf1ZS4TBAAMBwMWAGBYWlt9Rrmst0p6h6TnUgQAsD3uustMl40dq+8uWmSPUgQAMFwMWACAEQlDb3DXfEmnmGmepAJVAABPcddmSdea6VtRZBFFAACjwYAFABi1MPQ9JL3VXSeZaR+KAEBd+4ek70m6NIrsIXIAACqBAQsAUEFuYagj3HWCpOPNNIEmAFAXNpnpujjWldOn64bOTiuTBABQSQxYAICqaGvzHctlHRvHeruZDqUIAOSPu/5oph9oy9lWqykCAKgWBiwAQNUVi37Q4FlZp0iaQhEAyLQn3HW1ma6MIltKDgBALTBgAQBqZtYsHz92rF4j6c2S5kkaQxUASD93xWbqlXTZpk362fLltoEqAIBaYsACACRi9mzfecwYdbjrREmH8zsJANJn8BLBzoYG/aCry/5OEQBAUjhYAAAkrq3N9xoY0HHuepuZ/ociAJAcd/1L0jVm6uQSQQBAWjBgAQBS5Wn3y3qrpBkUAYCa2GCm6+NYV5ppYRTZAEkAAGnCgAUASKWZM33MpEmaJ+lYd73aTJOpAgAV1e+uG4NAP5o4UdcuWGDrSQIASCsGLABA6rW3+9j16zVX0lFmOlrSNKoAwIiUJd0kqbOxUT9ZvNhWkgQAkAUMWACATOno8MKqVZrlrg4zHSfGLADYpsEnCC6X1Fko6KrubnuYKgCArGHAAgBk1tPHLElvNNN0qgDAM0crSVdHkT1EFQBAljFgAQByYfCeWa2SjpE0X9wAHkD96ZcUmenaINDPONMKAJAnDFgAgBzyoFjUIe6aL+koSYfyOw9ALj/tXOvN1GOmTnddF0X2OFUAAHnEl3kAQO61tPhz3TXPXfPdNddMjVQBkGGrzbQwjtU5YYIWL1xom0gCAMg7BiwAQF1pa/Mdy2XNc9er3dVupl2oAiAD/uKuX0q6trdXv5EsJgkAoJ4wYAEA6lYYeoOk2WZ6ZRxrnpleyO9GACmxQVKvpP8NAi3s6bG/kQQAUM/4kg4AwKC5c336pk1qltRmpldJ2p0qAGroHnfdKKlrYEC/WrbM1pIEAIAtGLAAAHgWxaIf5K6jJLVJmiNpLFUAVNCApN9IWmCmrlLJVpAEAICtY8ACAGAIwtAnuqtopnmS5kp6PlUADJO7644gULekbnf1RpGtIwsAANvHgAUAwAjMmePPCQLN1pazs2ab6UCqANiKB820VFKXu26IIrufJAAADB8DFgAAFRCGvqu75mjLmHWEpEP5PQvUpbXacllgF5cFAgBQOXyxBgCgCo480ncbGFAYx2o2U5Ok/akC5NJDZloSx1rS0KDe7m7dKVlMFgAAKosBCwCAGghD31XSbHfNkvRyMx0qaRxlgMy5x11LzNRXKGhJd7fdRRIAAKqPAQsAgAR0dHjj6tU6xF0vl/Rydx1upr0oA6SHu2Iz/VHSUjMtcVcf97ACACAZDFgAAKTE4H20DjPTTElHDP4znjJAzTwh6XeSlrlrxbhxWrZokT1KFgAAkseABQBASs2c6WMmT9bB7jrETIe661BJB4tRCxg1d202063u+k0Q6DeFgm7q6rK/UwYAgHRiwAIAIEPC0Bsk7f/UqCXpkMH/nkwdYOvctVnSnWa61Uy3uOuW8eN168KFtok6AABkAwMWAADZPzy3MNS+T52lNThoHShpD9qg7n4aXOvNdLu7bjHTrUGgW6ZM0Z2dnbaZOgAAZBcDFgAAORWGvpOZDpJ0UBzroKf+W9Ku1EFO/FPSHyXd4a7bg0C3TJ2qP3d2Wpk0AADkCwMWAAB1ZnDY2lfSQe46UFtGrZmSnkMdpNRjkv7orj8MPhXwD42Nun3xYltJGgAA6gMDFgAAkCSFoU+VtP/gP/tJOmDwv/eWVKAQqsldsZnuddfdZrpL0p/d9cc41p1LltgqCgEAUN8YsAAAwDa1t/vYzZu138CA9jPTftoyau07+M80CmE43LXSTH+RdJeku911VxDornHj9Fduqg4AAJ4NAxYAABix9naf/OST2jcItgxaZto3jrf82117mimgUt1ZJ+leSfdI+oekf5ht+XehoL92ddkTJAIAAMPFgAUAAKqivd3HbtqkPcpl7RUE2lPS3u7aU9Keg//e20wTKJUpZXc9bKYH3PWgme7TlpHq3sF//yOKbDWZAABApTFgAQCAxLS2+pRyWXtK2kPSrmbaLY41w0y7S5rurt3NNEPSWGpVVb+kRySt1pYn+z1spn9KekjS/XGsBxsb9cBOO+lhnvAHAACSwIAFAABSr7XVp8Sxdo1jTQ8CTZM01V27SJpipilxvOXfkqZoy325dqzjXGslPeGuNWZ6Qv83TK1218qn/lvS6oYGPVIua2UU2eO8ywAAQJoxYAEAgBzyYPZs7djQoB3jWJMaGjTJXZPiWJMl7RQEW/5nSRPdNdlMgZl2dJdJ2mnw/8jOg//eyV02eD+v/xrG3FUw0+St/O83m+nJrfx/7kl3bX7a/7zRTBskbZC0UdIGM21013p3bQqCf/+/Xyep30yPDY5Ta9y1plDQmnJZawYG9MTSpXpcMuf1BwAAefP/AUINmdVvvGxHAAAAJXRFWHRkYXRlOmNyZWF0ZQAyMDE3LTExLTI3VDA4OjMwOjM1KzAwOjAwm7YvCwAAACV0RVh0ZGF0ZTptb2RpZnkAMjAxNy0xMS0yN1QwODozMDozNSswMDowMOrrl7cAAAAASUVORK5CYII=;fontSize=14;" parent="1" vertex="1">
          <mxGeometry x="-140" y="80" width="119.87" height="120.1" as="geometry" />
        </mxCell>
        <mxCell id="Dz1SHcOQrJCo73zto79k-45" value="1" style="ellipse;whiteSpace=wrap;html=1;aspect=fixed;strokeWidth=2;fontFamily=Tahoma;spacingBottom=4;spacingRight=2;strokeColor=#d6b656;fontSize=14;fillColor=#fff2cc;gradientColor=#ffd966;" parent="1" vertex="1">
          <mxGeometry x="190" y="139" width="27" height="27" as="geometry" />
        </mxCell>
        <mxCell id="Dz1SHcOQrJCo73zto79k-47" value="2" style="ellipse;whiteSpace=wrap;html=1;aspect=fixed;strokeWidth=2;fontFamily=Tahoma;spacingBottom=4;spacingRight=2;strokeColor=#d6b656;fontSize=14;fillColor=#fff2cc;gradientColor=#ffd966;" parent="1" vertex="1">
          <mxGeometry x="163" y="30" width="27" height="27" as="geometry" />
        </mxCell>
        <mxCell id="Dz1SHcOQrJCo73zto79k-49" value="3" style="ellipse;whiteSpace=wrap;html=1;aspect=fixed;strokeWidth=2;fontFamily=Tahoma;spacingBottom=4;spacingRight=2;strokeColor=#d6b656;fontSize=14;fillColor=#fff2cc;gradientColor=#ffd966;" parent="1" vertex="1">
          <mxGeometry x="370" y="308.8" width="27" height="27" as="geometry" />
        </mxCell>
        <mxCell id="Dz1SHcOQrJCo73zto79k-50" value="4" style="ellipse;whiteSpace=wrap;html=1;aspect=fixed;strokeWidth=2;fontFamily=Tahoma;spacingBottom=4;spacingRight=2;strokeColor=#d6b656;fontSize=14;fillColor=#fff2cc;gradientColor=#ffd966;" parent="1" vertex="1">
          <mxGeometry x="370" y="423" width="27" height="27" as="geometry" />
        </mxCell>
        <mxCell id="Dz1SHcOQrJCo73zto79k-51" value="5" style="ellipse;whiteSpace=wrap;html=1;aspect=fixed;strokeWidth=2;fontFamily=Tahoma;spacingBottom=4;spacingRight=2;strokeColor=#d6b656;fontSize=14;fillColor=#fff2cc;gradientColor=#ffd966;" parent="1" vertex="1">
          <mxGeometry x="-20.129999999999995" y="308.8" width="27" height="27" as="geometry" />
        </mxCell>
        <mxCell id="Dz1SHcOQrJCo73zto79k-52" value="1" style="ellipse;whiteSpace=wrap;html=1;aspect=fixed;strokeWidth=2;fontFamily=Tahoma;spacingBottom=4;spacingRight=2;strokeColor=#d6b656;fontSize=14;fillColor=#fff2cc;gradientColor=#ffd966;" parent="1" vertex="1">
          <mxGeometry x="20" y="620" width="27" height="27" as="geometry" />
        </mxCell>
        <mxCell id="Dz1SHcOQrJCo73zto79k-54" value="2" style="ellipse;whiteSpace=wrap;html=1;aspect=fixed;strokeWidth=2;fontFamily=Tahoma;spacingBottom=4;spacingRight=2;strokeColor=#d6b656;fontSize=14;fillColor=#fff2cc;gradientColor=#ffd966;" parent="1" vertex="1">
          <mxGeometry x="-160" y="500" width="27" height="27" as="geometry" />
        </mxCell>
        <mxCell id="Dz1SHcOQrJCo73zto79k-55" value="3" style="ellipse;whiteSpace=wrap;html=1;aspect=fixed;strokeWidth=2;fontFamily=Tahoma;spacingBottom=4;spacingRight=2;strokeColor=#d6b656;fontSize=14;fillColor=#fff2cc;gradientColor=#ffd966;" parent="1" vertex="1">
          <mxGeometry x="-230" y="500" width="27" height="27" as="geometry" />
        </mxCell>
        <mxCell id="Dz1SHcOQrJCo73zto79k-57" value="4" style="ellipse;whiteSpace=wrap;html=1;aspect=fixed;strokeWidth=2;fontFamily=Tahoma;spacingBottom=4;spacingRight=2;strokeColor=#d6b656;fontSize=14;fillColor=#fff2cc;gradientColor=#ffd966;" parent="1" vertex="1">
          <mxGeometry x="30" y="523" width="27" height="27" as="geometry" />
        </mxCell>
      </root>
    </mxGraphModel>
  </diagram>
</mxfile>
